<?xml version="1.0" encoding="utf-8"?>
<!-- Generator: Adobe Illustrator 27.1.1, SVG Export Plug-In . SVG Version: 6.00 Build 0)  -->
<svg version="1.1" id="b759170a-51c3-4e2f-999d-77dec9fd6d11"
	 xmlns="http://www.w3.org/2000/svg" xmlns:xlink="http://www.w3.org/1999/xlink" x="0px" y="0px" viewBox="0 0 1140.6 787.3"
	 style="enable-background:new 0 0 1140.6 787.3;" xml:space="preserve">
<style type="text/css">
	.st0{opacity:0.2;fill:#9FDCF2;enable-background:new    ;}
	.st1{fill:#2271FF;}
	.st2{fill:#444053;}
	.st3{opacity:0.2;fill:#FFFFFF;enable-background:new    ;}
	.st4{opacity:0.1;enable-background:new    ;}
	.st5{opacity:0.1;}
	.st6{opacity:0.3;}
	.st7{fill:#4D0100;}
	.st8{fill:#3D0000;}
	.st9{fill:#FED1AA;}
	.st10{fill:#C0A084;}
	.st11{fill:#003E4D;}
	.st12{opacity:0.3;fill:#E7EAE1;}
	.st13{fill:#DDDDDD;}
	.st14{fill:#16C4B3;}
	.st15{fill:#F4F4F4;}
	.st16{fill:#5B0909;}
	.st17{fill:#0EAF9C;}
	.st18{fill:#B7BDBD;}
	.st19{opacity:0.2;}
	.st20{fill:#48545B;}
	.st21{fill:#FCCEB3;}
	.st22{fill:#E7EAE1;}
	.st23{fill:#893D30;}
	.st24{fill:#F6F7F5;}
	.st25{fill:#994D3C;}
	.st26{fill:#3A3A3A;}
	.st27{fill:#494949;}
	.st28{fill:#0269AF;}
	.st29{fill:#003E61;}
	.st30{fill:#3F5E77;}
	.st31{fill:#EAB794;}
	.st32{fill:#E29A59;}
	.st33{fill:#017DE1;}
	.st34{fill:#31ACFF;}
	.st35{fill:#D67F43;}
	.st36{fill:#EFAF6A;}
	.st37{fill:#606060;}
	.st38{fill:#474747;}
	.st39{fill:#0569B5;}
	.st40{fill:#0766A0;}
	.st41{fill:#0468B4;}
	.st42{fill:#FFB048;}
	.st43{fill:#EF9A33;}
	.st44{fill:#D19A75;}
	.st45{fill:#F4C3A2;}
	.st46{fill:#6CCBFF;}
	.st47{fill:#FFC176;}
	.st48{fill:#6A686B;}
	.st49{opacity:0.2;fill:#48545B;}
	.st50{fill:#69452B;}
	.st51{fill:#29D6C1;}
	.st52{fill:#FFFFFF;}
	.st53{fill:none;stroke:#535461;stroke-width:2;stroke-miterlimit:10;}
	.st54{opacity:0.25;enable-background:new    ;}
</style>
<path class="st0" d="M34.2,486.4c20.2-32.9,65.7-27.2,98.1-10s64.6,42.9,100.2,37.9c30-4.2,54.6-30.3,67.9-60.5s17.2-64.2,20.9-97.5
	c4.7-41.9,9.4-83.8,14.1-125.7c1.7-15.3,3.8-31.5,12.4-43.6c11.4-16,32.3-20.9,50.1-16.1s33.1,17.7,46.1,32.1
	c41.7,46.1,65.4,108.4,101.9,159.7c7.4,10.4,15.8,20.8,26.9,25.8c16,7.2,34.4,2.1,50-6c51-26.3,85.3-79.9,118.9-130
	c16.4-24.3,36.3-50.4,63.6-53c28.7-2.8,53.6,21.6,70.4,47.5c54.1,83.2,65.7,196.9,131,269.5c8.1,9,17.1,17.3,27.4,22.9
	c3.4,1.8,6.9,3.4,10.6,4.7c57,19.7,76,98.9,33.8,145.9c-0.9,1-1.8,2-2.8,3c-6.3,6.6-13.3,12.9-21.8,14.8c-7.9,1.8-16-0.3-23.8-2.5
	c-49.9-14.5-99.1-36.8-150.7-35.7c-50.2,1-97.7,24.2-147.3,32.5c-33.3,5.6-67.3,4.5-101,3.3c-112.3-4-224.6-8.7-336.8-14.1
	c-55.7-2.6-111.5-5-167.2-7.8c-42.9-2.2-70.3-7.1-75.2-57C47.5,582.7,8.3,528.7,34.2,486.4z"/>
<path class="st1" d="M129,56.8c0,0-17.5-36.4-24.4-39c0,0,22.1,9.4,25.6,37.8L129,56.8z"/>
<g>
	<path class="st1" d="M119.9,410.6c0,0,13.2-3,21.9,5.9c0,0-5.6,5-18.6-0.5L119.9,410.6z"/>
	<path class="st1" d="M118.4,410.5c0,0-7.8,11.1-2.9,22.5c0,0,6.8-3.2,6.6-17.5L118.4,410.5z"/>
	<path class="st1" d="M109.6,393.8c0,0,4.7-10.2,27,2.1c0,0-2.4,6.8-11.9,6.9S112.4,398.8,109.6,393.8z"/>
	<path class="st1" d="M108.2,393.1c0,0-11.2-0.5-10.5,24.9c0,0,7.1,1,11.6-7.4S111.3,398,108.2,393.1z"/>
	<path class="st1" d="M100.4,373.3c0,0,5-17.7,28.5-6.9c0,0-4.1,16.2-25.8,12.6L100.4,373.3z"/>
	<path class="st1" d="M91.7,348c0,0,10.6-18.2,32.5-3.4c0,0-6.2,16.9-30.3,9.5L91.7,348z"/>
	<path class="st1" d="M87.6,323.6c0,0,12.6-17,34.4-2.3c0,0-12.1,14.9-34.1,6.4L87.6,323.6z"/>
	<path class="st1" d="M83.8,299.9c0,0,12.8-17.7,33.6-3.2c0,0-14.7,15.8-33.3,7.1L83.8,299.9z"/>
	<path class="st1" d="M83.6,278.6c0,0,13.1-22.5,32.7-9.2c0,0-14.4,19.6-32.4,13.3L83.6,278.6z"/>
	<path class="st1" d="M85.4,253.6c0,0,14-22.4,33.1-7.2c0,0-17.1,19.8-32.9,11.2L85.4,253.6z"/>
	<path class="st1" d="M89,231.2c0,0,17-21.3,33.6-14.4c0,0-17.7,22.6-34,19.8L89,231.2z"/>
	<path class="st1" d="M94,209.8c0,0,19.5-26,32.4-18.6c0,0-14.3,20.1-33.6,23.4L94,209.8z"/>
	<path class="st1" d="M101.7,184.8c0,0,17.2-21.3,31-17.2c0,0-14.5,21.9-33.1,23.7L101.7,184.8z"/>
	<path class="st1" d="M108.5,161.5c0,0,19.2-20.6,28.3-17.8c0,0-13.4,22.4-28.9,22.1L108.5,161.5z"/>
	<path class="st1" d="M115.3,140c0,0,16.1-24.1,25.8-23c0,0-9.3,21.2-25.7,25.3L115.3,140z"/>
	<path class="st1" d="M122.3,111.1c0,0,14.4-18.7,22.8-19.2c0,0-10.7,24.3-23.1,25L122.3,111.1z"/>
	<path class="st1" d="M126.3,91.9l12.6-37.7c0,0,3,33.1-14,44.6L126.3,91.9z"/>
	<path class="st1" d="M129.7,51c0,0,0.4-30.8-1.3-33.2c0,0,12.5,24.7,2.1,46.7L129.7,51z"/>
	<path class="st1" d="M99.8,373c0,0-16.3-8.6-24.8,15.7c0,0,14.5,8.3,27-9.8L99.8,373z"/>
	<path class="st1" d="M91.1,347.1c0,0-19.7-7.5-27.3,17.9c0,0,15.5,9.2,29.5-11.8L91.1,347.1z"/>
	<path class="st1" d="M86.8,325.1c0,0-14.8-15.1-34.4,2.3c0,0,13.9,13.2,34.6,1.8L86.8,325.1z"/>
	<path class="st1" d="M83.3,299.9c0,0-15-15.8-33.7,1.4c0,0,16.7,13.7,34,2.5L83.3,299.9z"/>
	<path class="st1" d="M83.7,279.2c0,0-11.4-23.5-31.8-11.7c0,0,12.9,20.6,31.2,15.7L83.7,279.2z"/>
	<path class="st1" d="M86.6,253.5c0,0-11.3-23.9-32.1-11.1c0,0,14.7,21.6,31.3,14.9L86.6,253.5z"/>
	<path class="st1" d="M91.1,231.2c0,0-5.6-26.6-23.6-27.9c0,0,5.7,28.1,21.5,32.9L91.1,231.2z"/>
	<path class="st1" d="M94.5,209.8c0,0-3.7-32.3-18.5-32.5c0,0,2.1,24.6,17.1,37.1L94.5,209.8z"/>
	<path class="st1" d="M103.1,183.8c0,0-6.2-26.7-20.5-29c0,0,3.5,26,19.5,35.7L103.1,183.8z"/>
	<path class="st1" d="M110.2,161.6c0,0-2-28.1-10.9-31.6c0,0-3.6,25.8,8.6,35.4L110.2,161.6z"/>
	<path class="st1" d="M115.9,139.6c0,0-3.1-28.8-12.3-32.3c0,0-1.5,23.1,11.1,34.3L115.9,139.6z"/>
	<path class="st1" d="M123.7,113.3c0,0-1.6-23.5-8.4-28.6c0,0-4.6,26.2,5.4,33.6L123.7,113.3z"/>
	<path class="st1" d="M125.4,90.7L116.6,52c0,0-6.2,32.6,9.6,45.8L125.4,90.7z"/>
	<path class="st1" d="M124,51.7c0,0-17.6-25.3-17.5-28.2c0,0,3.5,27.5,24.4,39.9L124,51.7z"/>
	<path class="st2" d="M121.9,117.1l-1-0.2c9.9-42,11.2-68.5,3.9-74.6l0.7-0.8C133.3,47.9,132,74,121.9,117.1z"/>
	<path class="st2" d="M93.7,215.7l-1.6-0.4c1.1-3.9,2.3-7.8,3.5-11.7c11-33.7,20.1-65,25.8-88.9l1.3-0.8
		c-5.6,24-14.5,56.4-25.5,90.2C95.9,208,94.7,211.9,93.7,215.7z"/>
	<path class="st2" d="M140.7,440.1c-0.2-0.2-22.2-21.9-39.1-60.2c-9.9-22.5-16.2-46.3-18.6-70.8c-3-30.5,1.1-65.1,10-96.9l1.3,1.3
		c-20,71.3-6.2,130.3,9.2,165.4c16.7,38,38.5,59.5,38.7,59.7L140.7,440.1z"/>
	<path class="st1" d="M164.9,325.9c0,0,8-1.8,13.2,3.5c0,0-3.4,3-11.3-0.3L164.9,325.9z"/>
	<path class="st1" d="M164.1,325.9c0,0-4.7,6.7-1.7,13.6c0,0,4.1-2,4-10.5L164.1,325.9z"/>
	<path class="st1" d="M158.7,315.7c0,0,2.8-6.1,16.3,1.3c0,0-1.4,4.1-7.2,4.2S160.5,318.8,158.7,315.7z"/>
	<path class="st1" d="M157.9,315.4c0,0-6.8-0.3-6.4,15.1c0,0,4.3,0.6,7-4.5S159.8,318.3,157.9,315.4z"/>
	<path class="st1" d="M153.2,303.4c0,0,3.1-10.7,17.2-4.2c0,0-2.5,9.8-15.6,7.6L153.2,303.4z"/>
	<path class="st1" d="M147.9,288.1c0,0,6.4-11,19.6-2.1c0,0-3.8,10.2-18.3,5.8L147.9,288.1z"/>
	<path class="st1" d="M145.4,273.3c0,0,7.6-10.2,20.8-1.4c0,0-7.3,9-20.6,3.9L145.4,273.3z"/>
	<path class="st1" d="M143.1,259c0,0,7.7-10.7,20.3-1.9c0,0-8.9,9.6-20.1,4.3L143.1,259z"/>
	<path class="st1" d="M143,246.1c0,0,8-13.6,19.7-5.5c0,0-8.7,11.8-19.6,8L143,246.1z"/>
	<path class="st1" d="M144.1,231c0,0,8.5-13.5,20-4.4c0,0-10.3,11.9-19.9,6.7L144.1,231z"/>
	<path class="st1" d="M146.3,217.5c0,0,10.3-12.9,20.3-8.7c0,0-10.7,13.7-20.5,11.9L146.3,217.5z"/>
	<path class="st1" d="M149.3,204.5c0,0,11.8-15.7,19.6-11.3c0,0-8.6,12.1-20.3,14.1L149.3,204.5z"/>
	<path class="st1" d="M153.9,189.5c0,0,10.4-12.9,18.8-10.4c0,0-8.7,13.2-20,14.3L153.9,189.5z"/>
	<path class="st1" d="M158.1,175.4c0,0,11.6-12.5,17.1-10.8c0,0-8.1,13.5-17.5,13.4L158.1,175.4z"/>
	<path class="st1" d="M162.2,162.3c0,0,9.7-14.6,15.6-13.9c0,0-5.6,12.8-15.5,15.3L162.2,162.3z"/>
	<path class="st1" d="M166.4,144.8c0,0,8.7-11.3,13.8-11.6c0,0-6.5,14.7-13.9,15.1L166.4,144.8z"/>
	<path class="st1" d="M168.8,133.2l7.6-22.8c0,0,1.8,20-8.5,27L168.8,133.2z"/>
	<path class="st1" d="M170.9,108.5c0,0,0.3-18.6-0.8-20c0,0,7.5,15,1.3,28.2L170.9,108.5z"/>
	<path class="st1" d="M152.8,303.2c0,0-9.8-5.2-15,9.5c0,0,8.8,5,16.3-5.9L152.8,303.2z"/>
	<path class="st1" d="M147.6,287.5c0,0-11.9-4.5-16.5,10.8c0,0,9.4,5.5,17.8-7.1L147.6,287.5z"/>
	<path class="st1" d="M144.9,274.3c0,0-8.9-9.1-20.8,1.4c0,0,8.4,8,20.9,1.1L144.9,274.3z"/>
	<path class="st1" d="M142.9,259c0,0-9.1-9.6-20.4,0.8c0,0,10.1,8.3,20.5,1.5L142.9,259z"/>
	<path class="st1" d="M143.1,246.5c0,0-6.9-14.2-19.3-7.1c0,0,7.8,12.5,18.9,9.5L143.1,246.5z"/>
	<path class="st1" d="M144.8,230.9c0,0-6.9-14.5-19.4-6.7c0,0,8.9,13.1,19,9L144.8,230.9z"/>
	<path class="st1" d="M147.6,217.5c0,0-3.4-16.1-14.2-16.9c0,0,3.4,17,13,19.9L147.6,217.5z"/>
	<path class="st1" d="M149.6,204.5c0,0-2.2-19.5-11.2-19.6c0,0,1.3,14.9,10.3,22.5L149.6,204.5z"/>
	<path class="st1" d="M154.8,188.8c0,0-3.8-16.1-12.4-17.5c0,0,2.1,15.7,11.8,21.6L154.8,188.8z"/>
	<path class="st1" d="M159.1,175.4c0,0-1.2-17-6.6-19.1c0,0-2.2,15.6,5.2,21.4L159.1,175.4z"/>
	<path class="st1" d="M162.6,162.1c0,0-1.9-17.4-7.4-19.5c0,0-0.9,14,6.7,20.7L162.6,162.1z"/>
	<path class="st1" d="M167.2,146.2c0,0-1-14.2-5-17.3c0,0-2.8,15.8,3.2,20.3L167.2,146.2z"/>
	<path class="st1" d="M168.3,132.6l-5.3-23.4c0,0-3.8,19.7,5.8,27.7L168.3,132.6z"/>
	<path class="st1" d="M167.5,109c0,0-10.6-15.3-10.6-17.1c0,0,2.1,16.6,14.8,24.1L167.5,109z"/>
	<path class="st1" d="M168.3,104.2c0,0-10.6-22-14.8-23.5c0,0,13.4,5.7,15.5,22.9L168.3,104.2z"/>
	<path class="st2" d="M166.2,148.5l-0.6-0.1c6-25.4,6.8-41.4,2.4-45.1l0.4-0.5C173,106.6,172.3,122.5,166.2,148.5z"/>
	<path class="st2" d="M149.1,208.1l-0.9-0.3c0.7-2.3,1.4-4.7,2.1-7c6.6-20.4,12.2-39.3,15.6-53.8l0.8-0.5
		c-3.4,14.5-8.8,34.1-15.4,54.5C150.5,203.5,149.8,205.8,149.1,208.1z"/>
	<path class="st2" d="M177.5,343.8c-0.1-0.1-13.4-13.2-23.6-36.4c-6-13.6-9.8-28-11.2-42.8c-1.8-18.5,0.7-39.4,6.1-58.6l0.8,0.8
		c-12.1,43.1-3.7,78.8,5.6,100c10.1,23,23.3,35.9,23.4,36.1L177.5,343.8z"/>
	<path class="st3" d="M190.4,251.3c-1.9-0.9-3.8-1.7-5.9-2.4c0,0-1,0.8-2.9,2.2c-16.4,13.2-96.9,82.8-77.2,160.5
		c21.8,86.3,26.7,146.8,26.7,146.8h8.9c0,0-4.9-60.5-26.8-146.8C93.8,334.3,173.5,265,190.4,251.3z"/>
</g>
<path class="st4" d="M236.5,570c-2.6,0.5-5.1,1.2-7.5,2.1c-9.8-47.7-15.9-96.1-18.5-144.8c1.8-1.5,2.9-2.2,2.9-2.2
	C294.5,454.9,236.5,570,236.5,570z"/>
<g class="st5">
	<path d="M892.5,344.9c0,0.2-0.1,0.3-0.1,0.5c-0.2,0.7-0.5,1.4-0.8,2C891.8,346.5,892.1,345.7,892.5,344.9z"/>
	<path d="M763.4,333.4c0.4-1.7,1-3.3,1.8-4.8c-0.1,0.4-0.2,0.8-0.3,1.2c-1.2,5.2-0.2,10.6,1.1,15.8c0.7,2.7,1.5,5.6,3.8,7
		c3.5,2.3,9,0.3,11.9,3.4c1.8,2,1.9,5.4,4.3,6.6c0.9,0.4,1.9,0.5,2.8,0.3c6.3-0.9,10-8,16.1-10c3.5-1.1,7.3-0.4,10.7,0.9
		c1.4,0.4,2.6,1.2,3.5,2.3c2,2.6,0.6,6.5,1.5,9.7c1.3,4.4,6.6,6.2,11.2,6.8s9.7,0.9,12.8,4.4c2.2,2.4,2.7,6,2.3,9.2
		c-0.3,1.1-0.3,2.3,0,3.4c1.3,3.6,7.4,3,9,0.2c1.2-2,0.8-3.8,3.6-4.3c1.9-0.4,4.1,0.4,5.8,1c4.9,1.7,10.2,2.5,15.4,2.3
		c4.3-0.1,8.7-1,12.1-3.7c1.5-1.2,2.8-2.8,3.7-4.5c-0.8,3.2-2.6,6-5.1,8.1c-3.4,2.6-7.8,3.5-12.1,3.7c-5.2,0.2-10.4-0.6-15.4-2.3
		c-1.8-0.6-4-1.4-5.8-1c-2.8,0.6-2.4,2.3-3.6,4.3c-1.6,2.8-7.8,3.4-9.1-0.2c-0.3-1.1-0.3-2.3,0-3.4c0.4-3.2-0.1-6.8-2.3-9.2
		c-3.1-3.5-8.2-3.8-12.8-4.4s-9.8-2.3-11.2-6.8c-1-3.2,0.5-7.1-1.5-9.7c-1-1.1-2.2-1.8-3.5-2.3c-3.4-1.3-7.2-2-10.7-0.9
		c-6.1,2-9.8,9.1-16.1,10c-1,0.2-1.9,0.1-2.8-0.3c-2.4-1.2-2.5-4.7-4.3-6.6c-2.9-3.1-8.4-1.1-11.9-3.4c-2.3-1.5-3.2-4.4-3.8-7
		C763.2,344,762.2,338.5,763.4,333.4z"/>
</g>
<ellipse class="st6" cx="171.9" cy="621.2" rx="51.8" ry="11.4"/>
<g>
	<g>
		<g>
			<path class="st7" d="M180.8,232.8c4.4,0,7.9-3.6,7.9-7.9c0-0.2,0-0.5,0-0.7c1,1.2,2.5,1.9,4.2,1.9c3.1,0,5.7-2.5,5.7-5.7
				c0,0,0,0,0,0c1.2,0.7,2.6,1.1,4.1,1.1c4.4,0,7.9-3.6,7.9-7.9c0-2-0.7-3.8-2-5.2c3-0.1,5.4-2.6,5.4-5.6c0-0.3,0-0.6-0.1-0.9
				c2.8-1.2,4.7-4,4.7-7.3c0-2.1-0.8-4-2.1-5.4c2.1-1.2,3.5-3.4,3.5-5.9c0-2.5-1.4-4.7-3.4-5.8c1.4-1.4,2.3-3.4,2.3-5.6
				c0-3.4-2.2-6.3-5.2-7.5c0.2-0.6,0.3-1.1,0.3-1.8c0-3-2.4-5.5-5.4-5.6c1.2-1.4,2-3.2,2-5.2c0-4.4-3.6-7.9-7.9-7.9
				c-1.5,0-2.9,0.4-4.1,1.1c0,0,0,0,0,0c0-3.1-2.5-5.7-5.7-5.7c-1.7,0-3.2,0.7-4.2,1.9c0-0.2,0-0.5,0-0.7c0-4.4-3.6-7.9-7.9-7.9
				c-3.4,0-6.3,2.1-7.4,5.1c-1-1.5-2.7-2.5-4.7-2.5c-2.3,0-4.2,1.4-5.1,3.3c-1.4-2-3.8-3.3-6.4-3.3c-4.4,0-7.9,3.6-7.9,7.9
				c0,0,0,0.1,0,0.1c-0.6-0.2-1.3-0.4-2-0.4c-3.1,0-5.7,2.5-5.7,5.7c0,0.2,0,0.5,0,0.7c-0.5-0.1-1.1-0.2-1.6-0.2
				c-4.4,0-7.9,3.6-7.9,7.9c0,1.3,0.3,2.5,0.9,3.6c-2.4,0.7-4.1,2.8-4.1,5.4c0,1.9,0.9,3.5,2.3,4.6c-2.6,0.4-5.6,4-4.2,7.9
				c-0.7,0.9-1.1,2.1-1.1,3.4c0,1.8,0.9,3.4,2.2,4.5c-2.8,0-4.2,8.9,2.8,8.9c-1.3,1-2.1,2.6-2.1,4.4c0,2.6,1.8,4.8,4.1,5.4
				c-0.5,1.1-0.9,2.3-0.9,3.6c0,4.4,3.6,7.9,7.9,7.9c0.5,0,1.1-0.1,1.6-0.2c0,0.2,0,0.5,0,0.7c0,3.1,2.5,5.7,5.7,5.7
				c0.7,0,1.4-0.1,2-0.4c0,0,0,0.1,0,0.1c0,4.4,3.6,7.9,7.9,7.9c2.7,0,5-1.3,6.4-3.3c0.9,2,2.9,3.3,5.1,3.3c2,0,3.7-1,4.7-2.5
				C174.5,230.6,177.4,232.8,180.8,232.8z"/>
		</g>
	</g>
	<path class="st8" d="M173.1,152.6c-17.5,0-31.7,12.6-31.7,33.2c0,25.7,7.9,38.4,16.6,44.4c2.3-0.3,4.2-1.5,5.5-3.3
		c0.9,2,2.9,3.3,5.1,3.3c2,0,3.7-1,4.7-2.5c1.1,3,4,5.1,7.4,5.1c4.4,0,7.9-3.6,7.9-7.9c0-0.2,0-0.5,0-0.7c1,1.2,2.5,1.9,4.2,1.9
		c0,0,0,0,0.1,0c6.6-7.1,11.8-19.4,11.8-40.2C204.8,165.2,190.6,152.6,173.1,152.6z"/>
	<g>
		<g>
			<g>
				<g>
					<g>
						<path class="st9" d="M216,245.3c-1.6-1.7-3.4-3.1-5.4-4L185,230.5v-41.7h-24.1v41.7l-25.6,10.8c-1.9,0.8-3.8,2.2-5.4,4H216z"
							/>
					</g>
				</g>
			</g>
		</g>
	</g>
	<path class="st10" d="M160.9,222.6c4.5,5.4,9.9,6.9,13.9,6.9c3,0,6.6-0.8,10.2-3.4v-37.3h-24.1V222.6z"/>
	<g>
		<path class="st9" d="M197.9,186c0,32.8-15.6,39.3-24.7,39.3c-9.2,0-24.7-6.6-24.7-39.3c0-16.5,11.1-26.6,24.7-26.6
			C186.8,159.5,197.9,169.6,197.9,186z"/>
	</g>
	<path class="st11" d="M194.7,185.7c-0.1-0.4-0.4-0.7-0.8-0.7c0,0-14,0-15.6,0c-1.3,0-3.3,0.9-5.1,0.9c-1.8,0-3.8-0.9-5.1-0.9
		c-1.5,0-15.6,0-15.6,0c-0.5,0-0.7,0.3-0.8,0.7h-4.3v1.5h4.3c0.5,3.5,2.2,9.8,3.1,9.8h12c1.4,0,3.5-3,4.2-5c0.5-1.2,1.4-1.7,2.2-1.7
		c0.7,0,1.7,0.5,2.2,1.7c0.8,1.9,2.8,5,4.2,5h12c0.9,0,2.6-6.3,3.1-9.8h4.3v-1.5H194.7z M166.9,196.6c-1.1,0-10.5,0-11.5,0
		c-0.9,0-3.9-10.3-1.4-10.3c0,0,11.9,0,13.1,0C174,186.2,168,196.6,166.9,196.6z M191,196.6c-0.9,0-10.4,0-11.5,0
		c-1.1,0-7.1-10.3-0.1-10.3c1.2,0,13.1,0,13.1,0C194.9,186.2,191.9,196.6,191,196.6z"/>
	<path class="st12" d="M166.9,196.6c-1.1,0-10.5,0-11.5,0c-0.9,0-3.9-10.3-1.4-10.3c0,0,11.9,0,13.1,0
		C174,186.2,168,196.6,166.9,196.6z"/>
	<path class="st12" d="M191,196.6c-0.9,0-10.4,0-11.5,0c-1.1,0-7.1-10.3-0.1-10.3c1.2,0,13.1,0,13.1,0
		C194.9,186.2,191.9,196.6,191,196.6z"/>
	<path class="st8" d="M173.2,159.5c-13.7,0-24.7,10.1-24.7,26.6c0,1,0,2,0,3c0.3-0.6,0.5-1.1,0.6-1.8c0.1-0.7,0.1-1.3,0-2
		c2.3-0.4,4.2-2.1,4.8-4.5c0.1,0,0.2,0.1,0.3,0.1c2.8,0.5,5.6-0.4,7.6-2.2c0.9,1,2.1,1.7,3.5,1.9c1.7,0.3,3.4-0.1,4.7-1.1
		c1.2,2,3.3,3.6,5.9,4c2.6,0.4,5.2-0.3,7-2c0.9,1.4,2.4,2.5,4.2,2.8c1.5,0.3,2.9,0,4.1-0.7c1.1,2.6,3.4,4.7,6.5,5.2c0,0,0.1,0,0.1,0
		c0,0.3,0,0.6,0.1,0.9c0-1.2,0.1-2.4,0.1-3.6C197.9,169.6,186.8,159.5,173.2,159.5z"/>
	<path class="st7" d="M212.6,188.9c-1.4-16.1-14.1-39.4-28.4-41.9c-9.9-1.7-21.5-2.4-30.1,3.8c-8.8,6.3-9.8,12.7-12.6,22.4
		c-0.7,2.3-0.4,3.1-1.4,5.1c-0.9,1.7-2.9,2-3.3,4.4c-0.6,3.4,1.7,6.6,5.1,7.2c3.4,0.6,6.6-1.7,7.2-5.1c0.1-0.7,0.1-1.3,0-2
		c2.3-0.4,4.2-2.1,4.8-4.5c0.1,0,0.2,0.1,0.3,0.1c2.8,0.5,5.6-0.4,7.6-2.2c0.9,1,2.1,1.7,3.5,1.9c1.7,0.3,3.4-0.1,4.7-1.1
		c1.2,2,3.3,3.6,5.9,4c2.6,0.4,5.2-0.3,7-2c0.9,1.4,2.4,2.5,4.2,2.8c1.5,0.3,2.9,0,4.1-0.7c1.1,2.6,3.4,4.7,6.5,5.2c0,0,0.1,0,0.1,0
		c0,2.2,1.2,4.2,3.1,5.3c-0.3,0.6-0.5,1.2-0.6,1.9c-0.6,3.4,1.7,6.6,5.1,7.2s6.6-1.7,7.2-5.1C212.8,193.6,212.8,191.3,212.6,188.9z"
		/>
	<path class="st13" d="M174.1,126.6c-12.3,0-23.4,4.9-31.5,12.8l7.7,27.3c3.4-6.3,12.8-10.8,23.8-10.8c10.5,0,19.6,4.1,23.3,10
		l7.6-27C196.9,131.3,186,126.6,174.1,126.6z"/>
	<polygon class="st14" points="181.5,140.1 175.8,140.1 175.8,134.4 172.3,134.4 172.3,140.1 166.6,140.1 166.6,143.5 172.3,143.5 
		172.3,149.2 175.8,149.2 175.8,143.5 181.5,143.5 	"/>
	<path class="st15" d="M172,129.8c-5.2-0.6-21.8,3.6-26.7,10.6c0,0,0.7,4.8,2.9,10C157.9,142.4,172,129.8,172,129.8z"/>
	<path class="st16" d="M162.4,164c-3.1,3.7,13.3,6.9,23.1,7.8c7.8,0.7,14.6,1.2,9-5.6C184.5,154.2,165.3,160.6,162.4,164z"/>
</g>
<path class="st9" d="M143,356.3l29.1,11.7l28.5-10.2c0,0,7.6,22.1,7.6,44.1c0,11-11.1,98.3-11.1,99l-13.3,103.8l-8.9,5.8l0.6-61.6
	l0.4-62c0,0-1.1-52.6-0.6-66.3c0.2-4.5,1.5-17.9,1.5-17.9l-3-0.1l-5.5,0c0,0,1.5,13.3,1.7,17.7c0.6,13.7-0.6,66.4-0.6,66.4l0.6,61.6
	l-0.4,62l-8.8-3.7l-13-104.1c0-4.5-10.9-92.9-11.4-100.8C135.8,390.6,143,356.3,143,356.3z"/>
<path class="st14" d="M204.6,356.8l-0.5-12.6h-64.7l-0.3,11.5c-0.4,1.2-9.4,31.3-9,41.7c0.1,4,4.1,28.7,8.2,54
	c1.8,11.5,5.4,27,5.4,34.1c0,14.5,57.2,14.5,58,0c1.3-25.2,13.5-80,13.1-88C213.8,377,204.7,357,204.6,356.8z"/>
<path class="st17" d="M149.5,465.4c-5.4-21.6-11.8-47.5-12.6-52.2c-1.5-9.3-0.5-35.8,0.2-51c-2.7,9.6-7.4,27.7-7.2,35.2
	c0.1,4,3,28.4,7,53.7c1.8,11.5,3.8,23.6,5.4,34c1.1,7.3,12.8,9.3,12.8,9.3C153.8,488.6,151.3,472.6,149.5,465.4z"/>
<path class="st17" d="M206.8,362.2c1.3,11.7,2.9,32.7,1,51.2c-1.1,10.2-14.4,60.5-19.8,81.5c0,0,9-1.6,12.4-6
	c4.7-6.2,14.7-83.3,14.4-91.3C214.1,383.4,209.6,369.5,206.8,362.2z"/>
<path class="st17" d="M158.1,600.7c0,0-5.4,8.8-5.8,11.8c-0.4,3-1.4,11.3,1,12.3c2.4,1,12.6,1.2,14,0.3c1.4-0.9,4.3-6.7,4.6-10
	s-1.7-16.5-1.7-16.5L158.1,600.7z"/>
<path class="st9" d="M158.3,599.6c0,0-5.5,11-1.9,15.4c1.4,1.8,14.3-1.6,13.8-16.4C169.6,583.9,158.3,599.6,158.3,599.6z"/>
<path class="st17" d="M186.7,600.7c0,0,5.4,8.8,5.8,11.8c0.4,3,1.4,11.3-1,12.3c-2.4,1-12.6,1.2-14,0.3c-1.4-0.9-4.3-6.7-4.6-10
	s1.7-16.5,1.7-16.5L186.7,600.7z"/>
<path class="st9" d="M186.4,599.6c0,0,5.5,11,1.9,15.4c-1.4,1.8-14.3-1.6-13.8-16.4C175.1,583.9,186.4,599.6,186.4,599.6z"/>
<g>
	<g>
		<g>
			<g>
				<g>
					<path class="st14" d="M203.9,348.3l18.4-91.3c0-7.1-4.9-14.9-11-17.5l-25.8-10.8c-5.8,10.2-12.6,14.9-12.6,14.9
						s-6.8-5-12.4-14.9l-25.8,10.8c-6.1,2.5-11,10.4-11,17.5l19.9,91.3H203.9z"/>
					<path class="st13" d="M226.3,423.5c-2.5-23.2-16.6-70.8-16.8-89c-0.2-20.3,14.6-78.6,14.6-78.6c0-6.8-6.1-15.6-12.5-18
						l-20.1-7.8l-16.7,84.3l0.6,131.7C175.4,446.1,228.1,439.9,226.3,423.5z"/>
				</g>
				<g>
					<g>
						<g>
							<path class="st15" d="M199.6,241.9l-1.4-8.3l14.4,5.8C218.8,241.8,199.6,241.9,199.6,241.9z"/>
						</g>
					</g>
				</g>
			</g>
			<polygon class="st15" points="201.2,264.5 196.8,257.7 199.2,250.9 196.4,232 191.5,230.1 175.5,310.7 			"/>
		</g>
	</g>
</g>
<g>
	<g>
		<rect x="194.6" y="274.5" class="st11" width="21.1" height="10.6"/>
		<rect x="195.2" y="275" class="st15" width="19.9" height="9.4"/>
		<rect x="203.8" y="273.3" class="st18" width="2.8" height="2.3"/>
	</g>
	<rect x="196.5" y="276" class="st18" width="6.3" height="7.8"/>
</g>
<g class="st19">
	<path class="st20" d="M215.5,370.2c-3,6.5-6.8,13.6-11.6,21.6c-4.4,2.9,5.4,15.1,8.6,13.1c3-3.8,5.7-7.6,8.2-11.4
		C219,385.9,217.2,377.9,215.5,370.2z"/>
</g>
<path class="st9" d="M207.3,386.8c-3.6,1.7-10.8,5.5-9.7,7.2c1.5,2.3-3.2,6.5-5.1,8.9c-1.9,2.4,14.2,12.1,18,7.5
	c1.9-2.4,4.2-8.9,5.9-14.7C213.8,395.3,209.6,390.9,207.3,386.8z"/>
<path class="st15" d="M192.5,390.1c0,0-2.5,44.5,1.6,43.9c4.1-0.6,21.1-5.3,24.6-12.3c3.5-7-3.5-22.8-3.5-22.8L192.5,390.1z"/>
<path class="st13" d="M217.4,395.6c-3.2,2-15.1-12.4-10.7-15.3c31.4-52.6,22.7-58.3,10.6-95.3c2.4-14.3-7.4-35.1-2.8-36.4l0-8.6
	c16.7,9.7,17,20.3,23.3,36.9C247.3,301.9,254.2,349.2,217.4,395.6z"/>
<path class="st13" d="M120.3,423.5c2.5-23.2,16.6-70.8,16.8-89c0.2-20.3-14.6-78.6-14.6-78.6c0-6.8,6.1-15.6,12.5-18l20.1-7.8
	l22.6,89l-2.3,127C175.4,446.1,118.5,439.9,120.3,423.5z"/>
<g>
	<g>
		<g>
			<path class="st15" d="M146.9,241.9l1.4-8.3l-14.4,5.8C127.7,241.8,146.9,241.9,146.9,241.9z"/>
		</g>
	</g>
</g>
<polygon class="st15" points="145.4,264.5 149.8,257.7 147.4,250.9 150.2,232 155.1,230.1 177.7,319.1 "/>
<g class="st19">
	<path class="st20" d="M131.1,370.2c3,6.5,6.8,13.6,11.6,21.6c4.4,2.9-5.4,15.1-8.6,13.1c-3-3.8-5.7-7.6-8.2-11.4
		C127.6,385.9,129.4,377.9,131.1,370.2z"/>
</g>
<path class="st9" d="M139.3,386.8c3.6,1.7,10.8,5.5,9.7,7.2c-1.5,2.3,3.2,6.5,5.1,8.9c1.9,2.4-14.2,12.1-18,7.5
	c-1.9-2.4-4.2-8.9-5.9-14.7C132.7,395.3,137,390.9,139.3,386.8z"/>
<path class="st15" d="M154.1,390.1c0,0,2.5,44.5-1.6,43.9c-4.1-0.6-21.1-5.3-24.6-12.3c-3.5-7,3.5-22.8,3.5-22.8L154.1,390.1z"/>
<path class="st13" d="M129.2,395.6c3.2,2,15.1-12.4,10.7-15.3c-31.4-52.6-22.7-58.3-10.6-95.3c-2.4-14.3,7.4-35.1,2.8-36.4l0-8.6
	c-16.7,9.7-17,20.3-23.3,36.9C99.3,301.9,92.4,349.2,129.2,395.6z"/>
<path class="st6" d="M1090.9,621.2c0-7.6-27.7-13.7-61.9-13.7c-34.2,0-61.9,6.1-61.9,13.7c0,7.6,27.7,13.7,61.9,13.7
	C1063.2,634.9,1090.9,628.8,1090.9,621.2z"/>
<g>
	<g>
		<g>
			<g>
				<g>
					<g>
						<path class="st21" d="M1093.3,306.1v-64.5c0-7.6-6.4-16-14.2-18.7l-32.6-10.6v-44.7h-34.2v44.7l-32.6,10.6
							c-7.9,2.7-14.2,11.1-14.2,18.7v64.5H1093.3z"/>
						<g>
							<path class="st21" d="M1057.9,158.4c0,38.6-17.8,46.4-28.3,46.4c-10.5,0-28.3-7.7-28.3-46.4c0-19.4,12.7-31.3,28.3-31.3
								C1045.3,127.1,1057.9,139,1057.9,158.4z"/>
						</g>
					</g>
				</g>
				<path class="st21" d="M1006.6,166c1.1,6.1-0.2,11.5-3,12c-2.8,0.5-6-4-7.2-10.1c-1.1-6.1,0.2-11.5,3-12
					C1002.2,155.3,1005.4,159.9,1006.6,166z"/>
				<path class="st21" d="M1052.4,166c-1.1,6.1,0.2,11.5,3,12c2.8,0.5,6-4,7.2-10.1c1.1-6.1-0.2-11.5-3-12
					C1056.7,155.3,1053.5,159.9,1052.4,166z"/>
			</g>
		</g>
	</g>
	<path class="st22" d="M1063.1,376.3l30.4-134.7c0-7.6-6.4-16.1-14.4-18.8l-32.5-10.7l-16.8,10.5l-17.6-10.5l-32.5,10.7
		c-7.9,2.7-14.4,11.2-14.4,18.8l24.1,139.4L1063.1,376.3z"/>
	<path class="st23" d="M1012.4,173.2V198c5.2,8.7,12.3,12.4,17.1,13.3c4.8,0.9,11.9,0.3,17.1-6.3v-25.7l-17.1-7.4L1012.4,173.2z"/>
	<path class="st22" d="M1055,170.5l-25.6-5.7l-25.6,5.7c0.9,8.2,3.2,20.2,3.2,20.2c6.1,11.2,15.9,14.5,22.3,14.5
		c6.4,0,16.2-2.5,22.3-13.5C1051.8,191.6,1054.2,178.6,1055,170.5z"/>
	<path class="st24" d="M1029.5,166V177c0,0-20.8,5-24.1-5.5L1029.5,166z"/>
</g>
<polygon class="st11" points="1036,222.7 1023.9,222.7 1023.9,230.2 1026.9,233 1024.7,297.3 1029.9,301.3 1035.2,297.3 1033,233 
	1036,230.2 "/>
<polygon class="st24" points="1029.9,222.6 1020.3,235.1 1006,214.5 1012.4,208.4 "/>
<polygon class="st24" points="1029.9,222.6 1039.8,235.1 1052.9,214.5 1046.5,208.4 "/>
<path class="st25" d="M1054.5,147.9c0.6-0.2,1.2-0.4,1.8-0.4c-3.9-12.6-14.3-20-26.6-20c-14.2,0-26,9.9-28,26.3
	c0.1,0.9,0.2,1.9,0.2,2.9c0,0,3.3-6.7,3.2-13c-0.1-3.3,8.9-10.1,24.3-1.9C1045.7,138,1053.1,144.8,1054.5,147.9z"/>
<path class="st26" d="M1006.1,126.1c-10.5,13.8-4.3,20-4.3,30.4c0,0,3.3-7.1,3.2-13.3c-0.1-3.3,8.9-11,24.3-4.4
	c18.2-6,25.4,2.1,25.4,4.5c0,4.8-1.5,3.4,2.5,14c3.4-13.4,4.7-21.5-4.8-33C1042.9,113,1018.9,109.3,1006.1,126.1z"/>
<polygon class="st22" points="1001.7,153.7 1000.4,156 1004.2,173.3 1005.1,170.4 "/>
<polygon class="st22" points="1057.1,153.7 1058.4,156 1054.6,173.3 1053.7,170.4 "/>
<path class="st27" d="M1040.2,123.7c-23.7,1-32.4,13.3-32.4,6.7s8.5-12.9,19-14C1037.3,115.3,1046.8,123.5,1040.2,123.7z"/>
<g>
	<path class="st28" d="M1068.2,361.3l-38.3,1.2l-37.5,0.4c0,0-2.6,24.2-2.6,48.3c0,12.1,11.1,194.7,11.1,194.7l18.8-0.5l7.7-193.4
		l0.1-0.1l3.9,0l9,195.9l19.9,0.3c0,0,10.4-190.6,11.1-199.2C1072.4,396.9,1068.2,361.3,1068.2,361.3z"/>
	<g>
		<g>
			<path class="st13" d="M1084,440c0-65.4,8.5-197.6,8.5-197.6c0-8.5-6.4-17.8-14.3-20.9L1051,211c0,0-12.5,152.1,12.5,166.7
				C1066.1,451.4,1084,450.9,1084,440z"/>
			<path class="st15" d="M1063.2,252.1l-4.5-13.9l3.5-2.2l-2.3-22c0,0-8.6-5.8-8.9-3.5c-7.7,49-2.4,109-2.4,109L1063.2,252.1z"/>
			<path class="st24" d="M1078.7,222.6l-17-6l1.8,9.6C1072,225.5,1083.1,224.4,1078.7,222.6z"/>
		</g>
		<g>
			<g>
				<rect x="1058.9" y="259" class="st11" width="21" height="10.5"/>
				<rect x="1059.4" y="259.6" class="st15" width="19.9" height="9.4"/>
				<rect x="1068" y="257.9" class="st18" width="2.8" height="2.3"/>
			</g>
			<rect x="1060.8" y="260.5" class="st18" width="6.3" height="7.7"/>
		</g>
	</g>
	<g>
		<path class="st29" d="M1021,619.7c0,3.4-3.9,6.1-8.7,6.1h-5.8c-4.8,0-8.7-2.7-8.7-6.1v-13c0-3.4,3.9-3.9,8.7-3.9h5.8
			c4.8,0,8.7,0.5,8.7,3.9V619.7z"/>
		<path class="st30" d="M1021,616.2c0,2.5-3.9,4.6-8.7,4.6h-5.8c-4.8,0-8.7-2-8.7-4.6v-9.7c0-2.5,3.9-7.9,8.7-7.9h5.8
			c4.8,0,8.7,5.4,8.7,7.9V616.2z"/>
	</g>
	<g>
		<path class="st29" d="M1062,619.7c0,3.4-3.9,6.1-8.7,6.1h-5.8c-4.8,0-8.7-2.7-8.7-6.1v-13c0-3.4,3.9-3.9,8.7-3.9h5.8
			c4.8,0,8.7,0.5,8.7,3.9V619.7z"/>
		<path class="st30" d="M1062,616.2c0,2.5-3.9,4.6-8.7,4.6h-5.8c-4.8,0-8.7-2-8.7-4.6v-9.7c0-2.5,3.9-7.9,8.7-7.9h5.8
			c4.8,0,8.7,5.4,8.7,7.9V616.2z"/>
	</g>
	<path class="st18" d="M1078.5,278.5c4.4,36.5-2.1,44.6-17.4,96c-0.2,0.1-0.4,0.4-0.6,0.6c0.9,1.1,1.9,2,3,2.6
		c0.4,11.3,1.2,20.9,2.2,29c7.7-8,14.2-15.8,19.6-23.5c1.3-36.7,3.5-76.8,5.1-104.7H1078.5z"/>
	<path class="st13" d="M1077.7,388.2c-3.6,2.3-18.1-16.6-13.2-19.8c21.1-51.3,24.9-52.5,13.9-90.8c3.4-15.1-3-45.7,2.1-47.2l0.4-7.6
		c17.6,9.4,17.4,19.1,23.4,36.1C1113.2,284.9,1126.2,327.6,1077.7,388.2z"/>
	<path class="st31" d="M1049,391.8c5.3,3.4,10.5,6.8,16.1,9.7c1.8-3.3,7.9-11.4,9.4-15.8c-2.7-0.3-7.1-4.8-9.3-9
		c-4,1.9-11.2,4.1-12.3,5.9C1050.8,386.3,1050.1,390.3,1049,391.8z"/>
	<path class="st13" d="M973.6,440c0-65.4-8.5-197.6-8.5-197.6c0-8.5,6.4-17.8,14.3-20.9l27.2-10.6c0,0,12.5,152.1-12.5,166.7
		C991.4,451.4,973.6,450.9,973.6,440z"/>
	<path class="st15" d="M994.4,252.1l4.5-13.9l-3.5-2.2l2.3-22c0,0,8.6-5.8,8.9-3.5c7.7,49,2.4,109,2.4,109L994.4,252.1z"/>
	<path class="st24" d="M978.9,222.6l17-6l-1.8,9.6C985.6,225.5,974.5,224.4,978.9,222.6z"/>
	<path class="st18" d="M979.1,278.5c-4.4,36.5,2.1,44.6,17.4,96c0.2,0.1,0.4,0.4,0.6,0.6c-0.9,1.1-1.9,2-3,2.6
		c-0.4,11.3-1.2,20.9-2.2,29c-7.7-8-14.2-15.8-19.6-23.5c-1.3-36.7-3.5-76.8-5.1-104.7H979.1z"/>
	<path class="st13" d="M979.9,388.2c3.6,2.3,18.1-16.6,13.2-19.8c-21.1-51.3-24.9-52.5-13.9-90.8c-3.4-15.1,3-45.7-2.1-47.2
		l-0.4-7.6c-17.6,9.4-17.4,19.1-23.4,36.1C944.4,284.9,931.3,327.6,979.9,388.2z"/>
	<path class="st31" d="M1008.6,391.8c-5.3,3.4-10.5,6.8-16.1,9.7c-1.8-3.3-7.9-11.4-9.4-15.8c2.7-0.3,7.1-4.8,9.3-9
		c4,1.9,11.2,4.1,12.3,5.9C1006.8,386.3,1007.4,390.3,1008.6,391.8z"/>
</g>
<g>
	<ellipse class="st6" cx="906.7" cy="636" rx="61.9" ry="13.7"/>
	<g>
		<g>
			<g>
				<g>
					<g>
						<path class="st27" d="M938.5,168.4l-59.7,2.5c0,14.7,0.4,29.7-2.5,40.1c10.2,11.6,47.4,12,65.3-0.2
							C935.9,192.1,938.5,168.4,938.5,168.4z"/>
						<g>
							<path class="st26" d="M928.2,216.9c5-6.8,8.7-17.8,8.7-35c0-5-0.9-9.5-2.5-13.3l-53.2,2.3c-1.1,3.3-1.7,7-1.7,11.1
								c0,18,4,29.1,9.4,35.9C900.2,220.8,915.5,220.6,928.2,216.9z"/>
							<polygon class="st32" points="909.4,267.2 946.2,230.4 921,220.7 921,183.8 894.2,183.8 894.2,220.7 871.6,229.4 							"/>
							<path class="st13" d="M918.1,282.3l42.5-33.8c0-7-5.3-14.7-11.8-17.2l-19.2-7.4c-6.2,10-15.1,12.7-21.4,12.7
								c-6.4,0-15.4-2.7-21.6-13.1l-20.2,7.8c-6.5,2.5-11.8,10.2-11.8,17.2l41.4,31.4L918.1,282.3z"/>
							<path class="st33" d="M950.5,423.2c0,0,10.3-54.8,0.7-78.1c-19.9-48.3,10.2-96.5,10.2-96.5c0-7.3-5.5-15.4-12.3-18l-21.7-8.3
								l-19.3,52.7l-20.3-52.7l-21.7,8.3c-6.8,2.6-12.3,10.7-12.3,18c0,0,30.4,54.1,11.8,98.8c-10.4,25.1-1.4,77.2-1.4,77.2
								L950.5,423.2z"/>
						</g>
						<g>
							<g>
								<g>
									<path class="st34" d="M924.6,238.2l4.6-13.3l20.7,8.3C956.6,235.8,924.6,238.2,924.6,238.2z"/>
								</g>
							</g>
						</g>
						<path class="st35" d="M894.2,210.8c5.4,6.4,12,8.2,16.9,8.2c2.9,0,6.4-0.6,9.9-2.5v-26.7h-26.8V210.8z"/>
						<g>
							<path class="st36" d="M936.9,167.1c0,37.9-18,45.5-28.6,45.5c-10.6,0-28.6-7.6-28.6-45.5c0-19.1,12.8-30.8,28.6-30.8
								S936.9,148,936.9,167.1z"/>
						</g>
					</g>
					<path class="st32" d="M908.3,136.3c-15.3,0-27.7,10.9-28.6,28.9c21.6-1.7,31.5-5.6,35.8-13.3c4.7,7,11.7,10.5,21.2,11.3
						C935.1,146.5,923,136.3,908.3,136.3z"/>
					<path class="st27" d="M943.4,163.4c3.6-24.7-11.7-46.4-29.6-41.5c-13-9.4-44.1-8.6-41.8,43.9c27.1-1.3,38.7-11,43.5-19.6
						C921.2,154.7,930.4,163.8,943.4,163.4z"/>
					<path class="st36" d="M882.8,172.7c1.2,6.6-0.2,12.4-3.3,13c-3,0.6-6.5-4.3-7.7-10.9c-1.2-6.6,0.2-12.4,3.3-13
						C878.1,161.2,881.6,166.1,882.8,172.7z"/>
					<path class="st36" d="M932.3,172.7c-1.2,6.6,0.2,12.4,3.3,13c3,0.6,6.5-4.3,7.7-10.9s-0.2-12.4-3.3-13
						C937,161.2,933.5,166.1,932.3,172.7z"/>
				</g>
				<path class="st37" d="M884.4,126.5c-1.3,1.4-6,9.3-6.7,15.6c-0.3,2.9,37.2-16.6,32.2-19C906.9,121.7,893.8,116.4,884.4,126.5z"
					/>
			</g>
			<g>
				<g>
					<rect x="919.3" y="269.9" class="st11" width="22.7" height="11.4"/>
					<rect x="919.9" y="270.5" class="st15" width="21.4" height="10.1"/>
					<rect x="929.2" y="268.7" class="st18" width="3" height="2.5"/>
				</g>
				<rect x="921.4" y="271.5" class="st18" width="6.8" height="8.3"/>
			</g>
		</g>
		<path class="st28" d="M955.2,381.6c-13.6,5.3-28.8,8.3-47.1,8.3c-17.7,0-34-2.9-47.4-7.9c0,21.7,3.6,42.5,3.6,42.6l26.5,205.6h15
			L905,423.9l4.7-0.1l-0.8,206.3h15L953.3,408C954.4,400.5,955.4,391,955.2,381.6z"/>
		<g>
			<path class="st29" d="M906.8,634.4c0,2.7-3.1,4.8-6.9,4.8h-4.6c-3.8,0-6.9-2.2-6.9-4.8v-10.3c0-2.7,3.1-3.1,6.9-3.1h4.6
				c3.8,0,6.9,0.4,6.9,3.1V634.4z"/>
			<path class="st13" d="M906.8,631.7c0,2-3.1,3.6-6.9,3.6h-4.6c-3.8,0-6.9-1.6-6.9-3.6V624c0-2,3.1-6.3,6.9-6.3h4.6
				c3.8,0,6.9,4.3,6.9,6.3V631.7z"/>
		</g>
		<g>
			<path class="st29" d="M926.2,634.4c0,2.7-3.1,4.8-6.9,4.8h-4.6c-3.8,0-6.9-2.2-6.9-4.8v-10.3c0-2.7,3.1-3.1,6.9-3.1h4.6
				c3.8,0,6.9,0.4,6.9,3.1V634.4z"/>
			<path class="st13" d="M926.2,631.7c0,2-3.1,3.6-6.9,3.6h-4.6c-3.8,0-6.9-1.6-6.9-3.6V624c0-2,3.1-6.3,6.9-6.3h4.6
				c3.8,0,6.9,4.3,6.9,6.3V631.7z"/>
		</g>
		<polygon class="st15" points="931,369.8 886.4,369.8 879.8,294.3 937.5,294.3 		"/>
		<path class="st31" d="M892.5,323.6c-2.9,0.1-8.3,0.1-9.6-1.9c-1.3-2-16,3.6-16,3.6l-0.2,10.4c0,0,11.6,2.8,17.2,2.7
			C904.4,338.1,920.1,322.4,892.5,323.6z"/>
		<path class="st33" d="M865.3,337.5c4.3-0.2,8.4-16.7,2.5-16.5c-10.8-3.9-17.5-7.8-19.2-12.9c-2.4-7,12.5-26.5,21.4-37.4
			c7.8-18.8-7.7-36.5-7.7-36.5c-12.5,7.9-41.7,68.6-36.9,86.9C827.3,328.7,845.3,332.5,865.3,337.5z"/>
		<path class="st31" d="M925.1,323.6c2.9,0.1,8.3,0.1,9.6-1.9c1.3-2,16,3.6,16,3.6l0.2,10.4c0,0-11.6,2.8-17.2,2.7
			C913.2,338.1,897.5,322.4,925.1,323.6z"/>
		<path class="st33" d="M952.3,337.5c-4.3-0.2-8.4-16.7-2.5-16.5c10.8-3.9,17.5-7.8,19.2-12.9c2.4-7-12.5-26.5-21.4-37.4
			c-7.8-18.8,4.9-36.9,4.9-36.9c12.5,7.9,44.6,69,39.8,87.2C990.3,328.7,972.3,332.5,952.3,337.5z"/>
		<path class="st34" d="M864.4,233.2l21.1-8.2l6.9,15.8C892.5,240.7,846.3,242.7,864.4,233.2z"/>
		<polygon class="st18" points="937.2,297.6 937.5,294.3 879.8,294.3 880.1,297.6 		"/>
	</g>
</g>
<ellipse class="st6" cx="311.9" cy="636" rx="75.9" ry="16.8"/>
<g>
	<g>
		<g>
			<g>
				<g>
					<g>
						<path class="st32" d="M369.5,252.9v-10.3c0-7.7-5.8-16.2-13-19l-28-10.8v-45.4h-34.7v45.4l-28,10.8c-7.2,2.8-13,11.3-13,19
							v10.3H369.5z"/>
					</g>
				</g>
			</g>
		</g>
	</g>
	<path class="st35" d="M293.7,173.1v25.2c5.3,8.9,12.5,12.6,17.4,13.5c4.9,0.9,12.1,0.3,17.4-6.4v-26.1l-17.4-7.5L293.7,173.1z"/>
	<g>
		<path class="st36" d="M339.8,158.5c0,39.2-18.1,47.1-28.7,47.1c-10.7,0-28.7-7.8-28.7-47.1c0-19.7,12.9-31.8,28.7-31.8
			C326.9,126.7,339.8,138.8,339.8,158.5z"/>
	</g>
	<path class="st36" d="M287.8,165.9c1.2,6.2-0.2,11.7-3.1,12.2c-2.9,0.5-6.1-4.1-7.3-10.3c-1.2-6.2,0.2-11.7,3.1-12.2
		C283.4,155.1,286.6,159.7,287.8,165.9z"/>
	<path class="st36" d="M334.3,165.9c-1.2,6.2,0.2,11.7,3.1,12.2c2.9,0.5,6.1-4.1,7.3-10.3c1.2-6.2-0.2-11.7-3.1-12.2
		C338.7,155.1,335.5,159.7,334.3,165.9z"/>
	<path class="st32" d="M339.7,155.2c-11.4-15.3-45-18.5-57.2,0.2c0,0,0,0,0,0.1C282.4,155.5,305.8,134.2,339.7,155.2z"/>
	<path class="st38" d="M337.9,146.3c-1.3,36-8.5,53.9-26.8,53.9c-18.4,0-25.5-17.9-26.8-53.9c-1.2,3.7-1.9,7.7-1.9,12.2
		c0,39.2,18.1,48.9,28.7,48.9c10.7,0,28.7-9.7,28.7-48.9C339.8,154,339.1,149.9,337.9,146.3z"/>
	<path class="st33" d="M282.3,130.4v25.2c12.1-18.9,46-15.7,57.4-0.3v-25.7c-5.8-7.9-17.6-20.1-29.2-20.1
		C299.3,109.4,288.2,121.2,282.3,130.4z"/>
	<path class="st34" d="M310.5,111.1c-7.3-0.1-20.7,10.4-26.2,20.3c0,0,0,5.4,0,9.4C305.4,128.5,310.5,111.1,310.5,111.1z"/>
	<polygon class="st38" points="307.7,195.6 303.3,200 307.5,204.2 315,204.2 319.2,200 314.8,195.6 	"/>
	<path class="st38" d="M300.8,184.2c-3,3,0,17,0,17h2.1c0,0-2.4-11.2,0-13.6c2.9-2.9,13.6-2.9,16.5,0c2.4,2.4,0,13.6,0,13.6h2.1
		c0,0,3-14,0-17C317.9,180.6,304.5,180.6,300.8,184.2z"/>
	<path class="st28" d="M268.5,479.2c-1.4,0-2.8-0.1-4.2-0.1c3.7,39.1,6.7,70.3,9.5,99c0.3,2.6,1,14.3,1.2,16.6
		c0.2,2.1-3.5,13.1-3.3,14.9c0.9,9.2,5.2,12,5.2,12l24.2,1.6l2.4-11.4l-1.9-12.4l2.5-119.4C292.2,479.7,280.3,479.5,268.5,479.2z"/>
	<path class="st28" d="M314.6,480.1l5.5,120.4l-2.4,10.8l3.5,11.2l21.8,0.4c0,0,4.1-3.4,4.9-12.7c0.2-2.5-3.2-14.7-2.9-17.7
		c2.5-28.2,7-69.9,10.8-111.9C342,480.5,328.3,480.3,314.6,480.1z"/>
	<g>
		<g>
			<g>
				<path class="st33" d="M362.3,505.6c0-32.8-0.2-109.3,4.2-171.5c3.6-50.4,12.1-91.5,12.1-91.5c0-8.4-6.8-17.6-15.2-20.6
					l-32.4-11.7l-20.7,42.2l-19.7-42.2L258.3,222c-8.4,3-15.2,12.2-15.2,20.6c0,0,7.5,32.6,11.4,92.5c3.6,54.9,3.6,136,3.6,170.3
					C258.1,520.5,362.3,520.1,362.3,505.6z"/>
				<path class="st34" d="M327.2,226l5-13.5l30.6,11.1C370,226.2,327.2,226,327.2,226z"/>
				<path class="st34" d="M259,223.6l30.6-11l10,21.2C299.6,233.8,232.8,236.5,259,223.6z"/>
			</g>
		</g>
		<g>
			<g>
				<rect x="330" y="257.6" class="st11" width="23" height="11.5"/>
				<rect x="330.6" y="258.2" class="st15" width="21.7" height="10.3"/>
				<rect x="340" y="256.4" class="st18" width="3" height="2.5"/>
			</g>
			<rect x="332.1" y="259.2" class="st18" width="6.9" height="8.5"/>
		</g>
	</g>
	<g>
		<path class="st29" d="M301,637.7c0,3.7-4.2,6.7-9.5,6.7h-6.3c-5.2,0-9.5-3-9.5-6.7v-14.2c0-3.7,4.2-4.3,9.5-4.3h6.3
			c5.2,0,9.5,0.6,9.5,4.3V637.7z"/>
		<path class="st30" d="M301,633.8c0,2.8-4.2,5-9.5,5h-6.3c-5.2,0-9.5-2.2-9.5-5v-10.7c0-2.8,4.2-8.7,9.5-8.7h6.3
			c5.2,0,9.5,5.9,9.5,8.7V633.8z"/>
	</g>
	<g>
		<path class="st29" d="M344.7,637.7c0,3.7-4.2,6.7-9.5,6.7h-6.3c-5.2,0-9.5-3-9.5-6.7v-14.2c0-3.7,4.2-4.3,9.5-4.3h6.3
			c5.2,0,9.5,0.6,9.5,4.3V637.7z"/>
		<path class="st30" d="M344.7,633.8c0,2.8-4.2,5-9.5,5h-6.3c-5.2,0-9.5-2.2-9.5-5v-10.7c0-2.8,4.2-8.7,9.5-8.7h6.3
			c5.2,0,9.5,5.9,9.5,8.7V633.8z"/>
	</g>
	<path class="st28" d="M362.3,279.3c4.5,37.3-2.2,45.7-17.9,98.3c-0.2,0.1-8,8-8.2,8.2c6.1,3.7,11.3,11.3,12.3,19.5
		c4.1-3.5,9.5-2.7,15-10.5c1.4-37.6,9.2-87,10.9-115.6H362.3z"/>
	<path class="st33" d="M361.6,391.7c-3.7,2.3-18.6-17-13.5-20.3c21.6-52.5,25.5-53.8,14.2-92.9c3.5-15.4-3.1-46.8,2.1-48.4l0.4-7.8
		c18.1,9.6,17.9,19.5,23.9,37C397.9,285.9,411.2,329.7,361.6,391.7z"/>
	<path class="st31" d="M332.1,395.4c5.4,3.4,10.8,7,16.5,10c1.8-3.4,8.9-9.6,10.5-14c-2-0.9-8-7.8-10.3-12.1c-4.1,2-11.6,5-12.7,6.8
		C333.9,389.7,333.3,393.8,332.1,395.4z"/>
	<path class="st28" d="M260.6,279.3c-6.5,39.7,3,55.4,27.2,108.7c0.2,0.1-12.5,9.1-13.5,17.3c-4.1,0.5-11.8-3.8-17.3-11.7
		c-1.4-37.6-6.9-85.8-8.6-114.4H260.6z"/>
	<path class="st33" d="M261.3,391.7c3.7,2.3,18.6-17,13.5-20.3c-21.6-52.5-25.5-53.8-14.2-92.9c-3.5-15.4,3.1-46.8-2.1-48.4
		l-0.4-7.8c-18.1,9.6-17.9,19.5-23.9,37C225,285.9,211.6,329.7,261.3,391.7z"/>
	<path class="st31" d="M290.8,395.4c-5.4,3.4-10.8,7-16.5,10c-1.8-3.4-8.9-9.6-10.5-14.1c3.8-2.7,7.8-8.5,10.3-12.1
		c4.1,2,11.6,5,12.7,6.8C288.9,389.7,289.6,393.8,290.8,395.4z"/>
	<path class="st34" d="M288.8,431.5c2.5-12,2-32,2-53.6c-6.5,7.4-29.9,18.6-29.9,18.6c0,17.1,1.2,28,3.4,34.9H288.8z"/>
	<path class="st34" d="M333.4,431.5c-2.5-12-2-32-2-53.6c6.5,7.4,29.9,18.6,29.9,18.6c0,17.1-1.2,28-3.4,34.9H333.4z"/>
</g>
<ellipse class="st6" cx="604.7" cy="681.8" rx="100.7" ry="22.2"/>
<ellipse class="st6" cx="457" cy="655.6" rx="75.9" ry="16.8"/>
<ellipse class="st6" cx="751.8" cy="655.6" rx="75.9" ry="16.8"/>
<g>
	<path class="st31" d="M425.5,360.9l32.5,13l31.8-11.4c0,0,8.4,24.6,8.4,49.2c0,12.3-12.3,109.8-12.3,110.5l-14.8,115.9l-9.9,6.5
		l0.6-68.8l0.5-69.3c0,0-1.2-58.7-0.7-74c0.2-5,1.7-20,1.7-20l-3.4-0.1l-6.2,0c0,0,1.7,14.8,1.9,19.8c0.6,15.4-0.7,74.1-0.7,74.1
		l0.7,68.8l-0.4,69.2l-9.9-4.1L430.9,524c0-5.1-12.1-103.7-12.7-112.5C417.4,399.2,425.5,360.9,425.5,360.9z"/>
	<path class="st39" d="M494.2,361.5l-0.5-14.1h-72.3l-0.3,12.9c-0.4,1.4-10.5,34.9-10.1,46.6c0.1,4.4,4.6,32.1,9.1,60.3
		c2.1,12.8,6.1,30.2,6.1,38.1c0,16.2,63.9,16.2,64.7,0c1.4-28.1,15-89.3,14.6-98.3C504.5,384,494.3,361.7,494.2,361.5z"/>
	<path class="st40" d="M432.8,482.8c-6-24.1-13.2-53.1-14-58.3c-1.6-10.4-0.6-40,0.3-57c-3,10.8-8.3,30.9-8,39.3
		c0.1,4.4,3.3,31.7,7.9,60c2.1,12.8,4.3,26.4,6,38c1.2,8.2,14.3,10.4,14.3,10.4C437.6,508.7,434.8,490.7,432.8,482.8z"/>
	<path class="st40" d="M496.7,367.5c1.4,13.1,3.3,36.5,1.1,57.1c-1.2,11.4-16,67.5-22.1,91c0,0,10-1.8,13.8-6.7
		c5.3-6.9,16.5-93,16-101.9C504.9,391.2,499.8,375.7,496.7,367.5z"/>
	<path class="st41" d="M442.3,633.9c0,0-6,9.8-6.5,13.1c-0.5,3.3-1.6,12.6,1.2,13.7c2.7,1.2,14.1,1.4,15.6,0.4
		c1.6-1,4.9-7.5,5.1-11.2c0.3-3.7-1.9-18.5-1.9-18.5L442.3,633.9z"/>
	<path class="st31" d="M442.6,632.7c0,0-6.2,12.3-2.2,17.2c1.6,2,16-1.8,15.4-18.3C455.2,615.1,442.6,632.7,442.6,632.7z"/>
	<path class="st41" d="M474.3,633.9c0,0,6,9.8,6.5,13.1c0.5,3.3,1.6,12.6-1.2,13.7c-2.7,1.2-14.1,1.4-15.6,0.4
		c-1.6-1-4.9-7.5-5.1-11.2c-0.3-3.7,1.9-18.5,1.9-18.5L474.3,633.9z"/>
	<path class="st31" d="M474,632.7c0,0,6.2,12.3,2.2,17.2c-1.6,2-16-1.8-15.4-18.3C461.3,615.1,474,632.7,474,632.7z"/>
	<g>
		<g>
			<g>
				<g>
					<g>
						<g>
							<g>
								<path class="st42" d="M475.5,116.4c-14.1-11.6-59.1-2.2-59.1,53.6c0,42.4,16.5,46.4-5.2,72.6c15.5,13.2,60.7,19,71.4,10.3
									c10.6-8.7,19.7-38.2,20.9-67.6C504.7,154,496.7,121.6,475.5,116.4z"/>
							</g>
						</g>
					</g>
					<path class="st43" d="M494.2,180.1c0-21.2-15.4-34.2-34.5-34.2s-34.5,13-34.5,34.2c0,42.1,21.7,50.5,34.5,50.5
						C472.5,230.6,494.2,222.2,494.2,180.1z"/>
					<g>
						<g>
							<path class="st31" d="M491.6,326.5l22.4-79.2c0-7.3-5.5-15.3-12.3-17.9L473,218.4v-38.3h-27.8v38.3l-28.8,11.1
								c-6.8,2.6-12.3,10.6-12.3,17.9l22.4,79.2H491.6z"/>
							<path class="st34" d="M493.5,352l20.6-102c0-7.9-5.5-16.6-12.3-19.5L473,218.4c-6.4,11.4-14,16.6-14,16.6s-7.6-5.6-13.8-16.6
								l-28.8,12.1c-6.8,2.8-12.3,11.6-12.3,19.5l22.3,102H493.5z"/>
							<path class="st13" d="M453.8,462.1L438.5,220l-22.5,8.7c-7.1,2.7-12.8,11.1-12.8,18.7c0,0,13.3,66.4,13.3,88.6
								c0,20.2-15.5,67.1-16.9,94.2C398.5,450.2,453.8,462.1,453.8,462.1z"/>
							<path class="st13" d="M518.5,436c-2.8-25.9-18.6-79-18.8-99.4c-0.2-22.6,16.3-87.8,16.3-87.8c0-7.6-6.9-17.4-13.9-20.2
								l-22.5-8.7l-12.1,241.5C467.5,461.5,520.5,454.3,518.5,436z"/>
						</g>
						<path class="st44" d="M445.1,208.1c5.6,6.6,12.5,8.6,17.6,8.6c3,0,6.6-0.7,10.3-2.6v-27.7l-27.8,0V208.1z"/>
						<g>
							<g>
								<g>
									<path class="st15" d="M488.7,233.2l-1.5-9.3l16.1,6.4C510.2,233,488.7,233.2,488.7,233.2z"/>
								</g>
							</g>
						</g>
						<g>
							<path class="st45" d="M489.4,162.7c0,39.4-18.7,47.3-29.8,47.3c-11,0-29.8-7.9-29.8-47.3c0-19.8,13.3-32,29.8-32
								C476.1,130.8,489.4,142.9,489.4,162.7z"/>
						</g>
						<path class="st45" d="M484.6,168.5c-1.3,6.9,0.2,12.9,3.4,13.5s6.8-4.5,8-11.3c1.3-6.9-0.2-12.9-3.4-13.5
							C489.5,156.6,485.9,161.7,484.6,168.5z"/>
					</g>
					<polygon class="st15" points="448.8,382.9 438.5,220 432.9,222.2 429.7,242 434,250.2 427.1,257.5 					"/>
					<polygon class="st15" points="490.4,258.4 485.6,250.9 488.2,243.2 485.1,222.1 479.6,220 471.6,379.3 					"/>
					<path class="st45" d="M484.6,168.5c-1.3,6.9,0.2,12.9,3.4,13.5s6.8-4.5,8-11.3c1.3-6.9-0.2-12.9-3.4-13.5
						C489.5,156.6,485.9,161.7,484.6,168.5z"/>
					<path class="st46" d="M459.1,235c-2.8,2.9-18.4,8.5-17.1-16.4c2.6-1.3,3.1-1.8,3.1-1.8L459.1,235z"/>
					<path class="st46" d="M458.9,235c2.8,2.9,18.4,8.5,17.1-16.4c-2.6-1.3-3.1-1.8-3.1-1.8L458.9,235z"/>
				</g>
				<path class="st43" d="M459.7,125.4c-16.4,0-32.9,22.6-32.9,35.8c14.4,2.8,47.5,8.8,54.1-18.8c0.3-1.3,5.9,5.1,8.4,16.2
					C503.2,153.1,472.5,125.4,459.7,125.4z"/>
				<path class="st45" d="M433.3,168.5c1.3,6.9-0.2,12.9-3.4,13.5c-3.2,0.6-6.8-4.5-8-11.3c-1.3-6.9,0.2-12.9,3.4-13.5
					C428.4,156.6,432,161.7,433.3,168.5z"/>
				<path class="st42" d="M495.2,177.7h5.4c6.4-13-2.5-28.7-21.9-58.1c-3.7-2.5-41.7-13.2-54.4,19.9c-7.4,19.5-3.8,20.2-3.8,20.2
					s50.3,15,58.2-21.9C479.4,134.7,495.9,159,495.2,177.7z"/>
				<path class="st47" d="M439.3,121.2c-1.8,1.5-14.6,18-8.2,19.3c14.4,2.9,45-21.8,38.3-24.3C465.4,114.7,451.9,110.7,439.3,121.2z
					"/>
			</g>
		</g>
		<g>
			<g>
				<rect x="483.1" y="269.5" class="st11" width="23.5" height="11.8"/>
				<rect x="483.7" y="270.2" class="st15" width="22.3" height="10.5"/>
				<rect x="493.3" y="268.3" class="st18" width="3.1" height="2.6"/>
			</g>
			<rect x="485.2" y="271.2" class="st18" width="7.1" height="8.7"/>
		</g>
		<g>
			<g>
				<g>
					<path class="st18" d="M473.4,290.5c-5.2-6-8.6-17.2-8.7-30h1.1c0,11.9,3.1,22.3,7.6,28.2V290.5z"/>
					<path class="st18" d="M491,288.4c4.4-6,7.3-16.2,7.4-27.9h1.1c0,12.6-3.4,23.6-8.4,29.7V288.4z"/>
					<path class="st18" d="M489.9,290.4c0,0.4,0.3,0.7,0.7,0.7l0,0c0.4,0,0.7-0.3,0.7-0.7v-2.2c0-0.4-0.3-0.7-0.7-0.7l0,0
						c-0.4,0-0.7,0.3-0.7,0.7V290.4z"/>
					<path class="st18" d="M473,290.4c0,0.4,0.3,0.7,0.7,0.7l0,0c0.4,0,0.7-0.3,0.7-0.7v-2.2c0-0.4-0.3-0.7-0.7-0.7l0,0
						c-0.4,0-0.7,0.3-0.7,0.7V290.4z"/>
					<path class="st18" d="M487.2,289.5c0,0.7,0.6,1.4,1.4,1.4h0.2c0.8,0,1.4-0.6,1.4-1.4l0,0c0-0.8-0.6-1.4-1.4-1.4h-0.2
						C487.9,288.1,487.2,288.7,487.2,289.5L487.2,289.5z"/>
					<path class="st18" d="M474.1,289.5c0,0.7,0.6,1.4,1.4,1.4h0.2c0.8,0,1.4-0.6,1.4-1.4l0,0c0-0.8-0.6-1.4-1.4-1.4h-0.2
						C474.7,288.1,474.1,288.7,474.1,289.5L474.1,289.5z"/>
					<path class="st11" d="M466.3,261.3l0-0.5c0-18.1,7.1-32.8,15.8-32.8s15.7,14.7,15.8,32.8l0,0.5h2.1l0-0.5
						c0-19.4-8.1-35.2-17.9-35.2c-9.8,0-17.8,15.8-17.9,35.2l0,0.5H466.3z"/>
				</g>
				<path class="st11" d="M473,214.9c4.7,3.2,8.3,7.5,10.1,12.5h-1.7c-1.6-4-4.6-7.6-8.3-10.4V214.9z"/>
			</g>
			<g>
				<path class="st11" d="M435.5,281.3l1.9,0c-2.6-24.7,4-61.5,7.8-64.2v-2.1C440.5,218.1,433.6,247.3,435.5,281.3z"/>
				<g>
					<path class="st11" d="M436.5,303.2c6.2,0,11.3-5.1,11.3-11.3c0-6.2-5.1-11.3-11.3-11.3c-6.2,0-11.3,5.1-11.3,11.3
						C425.2,298.1,430.2,303.2,436.5,303.2z"/>
					<path class="st18" d="M447.1,291.8c0-5.8-4.7-10.6-10.6-10.6c-5.8,0-10.6,4.7-10.6,10.6s4.7,10.6,10.6,10.6
						C442.3,302.4,447.1,297.7,447.1,291.8z"/>
					<path class="st48" d="M439.1,291.8c0-1.4-1.2-2.6-2.6-2.6c-1.4,0-2.6,1.2-2.6,2.6c0,1.4,1.2,2.6,2.6,2.6
						C437.9,294.4,439.1,293.2,439.1,291.8z"/>
					<path class="st13" d="M432.1,293.8c1,1.3,2.6,2.2,4.4,2.2c1.8,0,3.4-0.9,4.4-2.2h3.4c-0.3,4-3.7,7.2-7.8,7.2
						c-4.1,0-7.5-3.2-7.8-7.2H432.1z"/>
				</g>
			</g>
		</g>
	</g>
	<path class="st44" d="M465,182.2c-0.9,1.3-2.8,2.2-4.9,2.2c-2.1,0-4-0.9-4.9-2.2H465z"/>
	<path class="st49" d="M416.4,335.3c0,0.2,0,0.4,0,0.6c0,5.6-1,14.5-2.5,24.2l29.2,0l-1-25L416.4,335.3z"/>
	
		<rect x="418.5" y="304.5" transform="matrix(0.9879 -0.1551 0.1551 0.9879 -47.9306 73.2459)" class="st50" width="53.6" height="78.4"/>
	<path class="st31" d="M472.1,327.8c-3.2,1.3-9.2,4.9-11.1,2.6c-2-2.3-12.4,9.8-12.4,9.8l-3.9,10.5c0,0,23.5,1.3,29.7-1.3
		C480.5,346.8,475.3,326.5,472.1,327.8z"/>
	<path class="st13" d="M449.9,354.4c4.1-0.9,2.3-21.7-3.4-20.6c-64.6,8-48.8-20.9-35.3-62.3c2-6,8.5-40.8,3.3-42.2l0,0
		c-22.7,14-27.9,34.9-32.9,54C370.4,325.8,363.9,359.8,449.9,354.4z"/>
	<path class="st15" d="M414.1,231.4l16.2-6.3l-2.5,15.6C427.8,240.7,399.4,239.4,414.1,231.4z"/>
	<path class="st15" d="M440.7,398.1c0,0,3.3,49.7-1.3,49c-4.6-0.7-23.5-5.9-27.5-13.7c-3.9-7.8,3.9-25.5,3.9-25.5L440.7,398.1z"/>
	<g class="st19">
		<path class="st20" d="M506.4,376.5c-3.3,7.2-7.6,15.2-12.9,24.1c-4.9,3.2,6,16.9,9.6,14.6c3.4-4.3,6.4-8.5,9.2-12.7
			C510.4,393.9,508.3,385,506.4,376.5z"/>
	</g>
	<path class="st31" d="M497.3,394.9c-4,1.9-12.1,6.2-10.9,8.1c1.6,2.5-3.6,7.2-5.7,9.9c-2.1,2.7,15.8,13.5,20.1,8.4
		c2.2-2.6,4.7-9.9,6.6-16.4C504.6,404.4,499.8,399.5,497.3,394.9z"/>
	<path class="st15" d="M480.8,398.7c0,0-2.8,49.7,1.8,49c4.6-0.7,23.5-5.9,27.5-13.7c3.9-7.8-3.9-25.5-3.9-25.5L480.8,398.7z"/>
	<path class="st13" d="M508.6,404.8c-3.6,2.3-16.8-13.9-11.9-17.1c35.1-58.7,25.3-65.1,11.8-106.5c2.7-16-8.3-39.2-3.1-40.7l0-9.7
		c18.6,10.8,19,22.7,26,41.2C542,300.2,549.7,353,508.6,404.8z"/>
</g>
<path class="st30" d="M794,365l-43.3,14.5l-42.4-12.7c0,0-2.9,27.4-2.9,54.7c0,13.6,12.6,220.2,12.6,220.2l21.2-0.5l8.7-218.7
	l0.1-0.1l4.4,0l10.2,221.6l22.5,0.4c0,0,11.7-215.5,12.5-225.3C798.9,405.2,794,365,794,365z"/>
<g>
	<g>
		<g>
			<path class="st31" d="M796.1,339.6l26.6-103.4c0-9.4-7.2-19.7-16.1-23l-34.6-13.1v-55.2h-42.8v55.2l-34.6,13.1
				c-8.9,3.4-16.1,13.7-16.1,23l26.6,103.4H796.1z"/>
		</g>
	</g>
</g>
<path class="st34" d="M792.3,395.2l29.2-159.5c0-9.5-7.1-20-15.9-23.4l-33.9-13.3l-21.6,48l-20.6-48l-33.9,13.3
	c-8.8,3.4-15.9,13.9-15.9,23.4L709,395.2H792.3z"/>
<path class="st42" d="M751,172.3c-3.3,0-6.4-0.5-9.3-1.3c1.3-1.8,4-2.3,9.5-2.3c5.4,0,8.1,0.5,9.4,2.2
	C757.7,171.7,754.4,172.3,751,172.3z"/>
<g>
	<g>
		<path class="st9" d="M781.9,134.7c0,43.1-19.3,50.2-30.7,50.2s-30.7-8.4-30.7-50.2c0-21.1,13.7-33.9,30.7-33.9
			C768.2,100.8,781.9,113.6,781.9,134.7z"/>
	</g>
</g>
<path class="st9" d="M724.3,142.5c1.2,6.6-0.2,12.4-3.3,13c-3.1,0.6-6.5-4.3-7.8-10.9c-1.2-6.6,0.2-12.4,3.3-13
	C719.6,131,723,135.9,724.3,142.5z"/>
<path class="st9" d="M777.6,142.5c-1.2,6.6,0.2,12.4,3.3,13c3.1,0.6,6.5-4.3,7.8-10.9c1.2-6.6-0.2-12.4-3.3-13
	C782.4,131,778.9,135.9,777.6,142.5z"/>
<path class="st44" d="M729.5,180.4c1.8,13.2,11.5,19.8,24.4,19.8c8.2,0,13.9-2.3,18.2-6.5v-11.1L729.5,180.4z"/>
<path class="st38" d="M764.9,169.9c-0.6-4.4-3.5-6.9-13.7-6.9c-10.3,0-13.1,2.6-13.7,7.1c-11.9,0-17.3-32.3-17.3-32.3
	c-0.2,32.9,5,55.6,31,55.6c27.1,0,33.2-30.2,30.7-58.3C781.9,135.2,778,169.9,764.9,169.9z M751,172.8c-3.3,0-6.4-0.5-9.3-1.3
	c1.3-1.8,4-2.3,9.5-2.3c5.4,0,8.1,0.5,9.4,2.2C757.7,172.2,754.4,172.8,751,172.8z"/>
<path class="st31" d="M779,121.6c0.2-0.3,0.4-0.5,0.6-0.8c-4.6-12.7-15.5-20.1-28.4-20.1c-12,0-22.3,6.5-27.4,17.7
	c0.4,0.6,0.9,1.2,1.6,1.7C732,124.7,765.9,135.9,779,121.6z"/>
<path class="st38" d="M723.9,118.4c-6.7-4.2-3-19.5,14-23.6c21.4-5.2,40.3,6.9,40-6.1c6.4,4.1,12.9,19.6,1.3,31.2
	C765.7,133.2,730.7,122.6,723.9,118.4z"/>
<path class="st13" d="M813.3,458.1c0-73.9,9.6-223.5,9.6-223.5c0-9.6-7.3-20.1-16.2-23.6L776,199.1c0,0-14.1,172,14.1,188.6
	C793.1,471,813.3,470.5,813.3,458.1z"/>
<path class="st15" d="M789.8,245.6l-5.1-15.7l4-2.5l-2.6-24.9c0,0-9.7-6.6-10.1-3.9c-8.7,55.4-2.7,123.3-2.7,123.3L789.8,245.6z"/>
<path class="st37" d="M759.3,103.5c-26.8,1.2-36.6,15.1-36.6,7.5c0-7.5,9.6-14.6,21.5-15.9C756.1,93.9,766.9,103.1,759.3,103.5z"/>
<path class="st24" d="M807.3,212.2l-19.2-6.8l2.1,10.8C799.8,215.5,812.3,214.3,807.3,212.2z"/>
<g>
	<g>
		<rect x="784.9" y="253.4" class="st11" width="23.7" height="11.9"/>
		<rect x="785.5" y="254" class="st15" width="22.5" height="10.6"/>
		<rect x="795.2" y="252.1" class="st18" width="3.1" height="2.6"/>
	</g>
	<rect x="787" y="255.1" class="st18" width="7.1" height="8.7"/>
</g>
<g>
	<path class="st29" d="M742,661.4c0,3.8-4.4,6.9-9.8,6.9h-6.5c-5.4,0-9.8-3.1-9.8-6.9v-14.7c0-3.8,4.4-4.4,9.8-4.4h6.5
		c5.4,0,9.8,0.6,9.8,4.4V661.4z"/>
	<path class="st13" d="M742,657.4c0,2.9-4.4,5.2-9.8,5.2h-6.5c-5.4,0-9.8-2.3-9.8-5.2v-11c0-2.9,4.4-9,9.8-9h6.5
		c5.4,0,9.8,6.1,9.8,9V657.4z"/>
</g>
<g>
	<path class="st29" d="M787.2,661.4c0,3.8-4.4,6.9-9.8,6.9h-6.5c-5.4,0-9.8-3.1-9.8-6.9v-14.7c0-3.8,4.4-4.4,9.8-4.4h6.5
		c5.4,0,9.8,0.6,9.8,4.4V661.4z"/>
	<path class="st13" d="M787.2,657.4c0,2.9-4.4,5.2-9.8,5.2h-6.5c-5.4,0-9.8-2.3-9.8-5.2v-11c0-2.9,4.4-9,9.8-9h6.5
		c5.4,0,9.8,6.1,9.8,9V657.4z"/>
</g>
<path class="st18" d="M807.1,275.4c5,41.2-2.4,50.5-19.7,108.6c-0.3,0.2-0.5,0.4-0.7,0.7c1.1,1.3,2.2,2.3,3.4,3
	c0.5,12.8,1.3,23.6,2.5,32.8c8.7-9,16.1-17.9,22.2-26.5c1.5-41.5,3.9-86.8,5.7-118.5H807.1z"/>
<path class="st13" d="M806.2,399.5c-4.1,2.6-20.5-18.8-15-22.4c23.9-58,28.2-59.4,15.7-102.6c3.9-17-3.4-51.6,2.3-53.4l0.4-8.6
	c20,10.7,19.7,21.6,26.4,40.9C846.3,282.7,861.1,331,806.2,399.5z"/>
<path class="st31" d="M773.7,403.6c6,3.8,11.9,7.7,18.2,11c2-3.7,8.9-12.9,10.7-17.8c-3-0.4-8-5.4-10.6-10.1
	c-4.5,2.2-12.7,4.6-13.9,6.6C775.7,397.3,775,401.8,773.7,403.6z"/>
<path class="st13" d="M688.5,458.1c0-73.9-9.6-223.5-9.6-223.5c0-9.6,7.3-20.1,16.2-23.6l30.8-11.9c0,0,14.1,172-14.1,188.6
	C708.6,471,688.5,470.5,688.5,458.1z"/>
<path class="st15" d="M712,245.6l5.1-15.7l-4-2.5l2.6-24.9c0,0,9.7-6.6,10.1-3.9c8.7,55.4,2.7,123.3,2.7,123.3L712,245.6z"/>
<path class="st24" d="M694.4,212.2l19.2-6.8l-2.1,10.8C702,215.5,689.5,214.3,694.4,212.2z"/>
<path class="st18" d="M694.7,275.4c-5,41.2,2.4,50.5,19.7,108.6c0.3,0.2,0.5,0.4,0.7,0.7c-1.1,1.3-2.2,2.3-3.4,3
	c-0.5,12.8-1.3,23.6-2.5,32.8c-8.7-9-16.1-17.9-22.2-26.5c-1.5-41.5-3.9-86.8-5.7-118.5H694.7z"/>
<path class="st13" d="M695.5,399.5c4.1,2.6,20.5-18.8,15-22.4c-23.9-58-28.2-59.4-15.7-102.6c-3.9-17,3.4-51.6-2.3-53.4l-0.4-8.6
	c-20,10.7-19.7,21.6-26.4,40.9C655.4,282.7,640.7,331,695.5,399.5z"/>
<path class="st31" d="M728.1,403.6c-6,3.8-11.9,7.7-18.2,11c-2-3.7-8.9-12.9-10.7-17.8c3-0.4,8-5.4,10.6-10.1
	c4.5,2.2,12.7,4.6,13.9,6.6C726,397.3,726.7,401.8,728.1,403.6z"/>
<g>
	<g>
		<path class="st18" d="M728.8,278.7c5.8-6.7,9.6-19.2,9.7-33.5h-1.2c0,13.3-3.4,24.9-8.5,31.5V278.7z"/>
		<path class="st18" d="M709.1,276.4c-4.9-6.7-8.2-18.1-8.2-31.1h-1.2c0,14.1,3.8,26.3,9.4,33.1V276.4z"/>
		<path class="st18" d="M710.4,278.6c0,0.5-0.4,0.8-0.8,0.8l0,0c-0.5,0-0.8-0.4-0.8-0.8v-2.5c0-0.5,0.4-0.8,0.8-0.8l0,0
			c0.5,0,0.8,0.4,0.8,0.8V278.6z"/>
		<path class="st18" d="M729.2,278.6c0,0.5-0.4,0.8-0.8,0.8l0,0c-0.5,0-0.8-0.4-0.8-0.8v-2.5c0-0.5,0.4-0.8,0.8-0.8l0,0
			c0.5,0,0.8,0.4,0.8,0.8V278.6z"/>
		<path class="st18" d="M713.3,277.6c0,0.8-0.7,1.5-1.5,1.5h-0.2c-0.8,0-1.5-0.7-1.5-1.5l0,0c0-0.8,0.7-1.5,1.5-1.5h0.2
			C712.6,276.1,713.3,276.8,713.3,277.6L713.3,277.6z"/>
		<path class="st18" d="M727.9,277.6c0,0.8-0.7,1.5-1.5,1.5h-0.2c-0.8,0-1.5-0.7-1.5-1.5l0,0c0-0.8,0.7-1.5,1.5-1.5h0.2
			C727.3,276.1,727.9,276.8,727.9,277.6L727.9,277.6z"/>
		<path class="st11" d="M736.7,246.1l0-0.6c0-20.2-7.9-36.7-17.6-36.7c-9.7,0-17.6,16.5-17.6,36.7l0,0.6h-2.4l0-0.6
			c0-21.7,9-39.3,20-39.3c11,0,19.9,17.6,20,39.3l0,0.6H736.7z"/>
		<path class="st11" d="M729.3,196.6c-4.2,3.1-7.5,7.1-9.3,11.6h-2c2-5.6,6-10.4,11.3-13.9V196.6z M772.1,194.3v2.3
			c4.2,3.1,11.6,44.1,8.7,71.8l2.2,0C784.9,230.5,777.3,197.9,772.1,194.3z"/>
		<path class="st11" d="M781.8,292.8c-7,0-12.7-5.7-12.7-12.7c0-7,5.7-12.7,12.7-12.7c7,0,12.7,5.7,12.7,12.7
			C794.4,287.2,788.7,292.8,781.8,292.8z"/>
		<path class="st18" d="M769.9,280.2c0-6.5,5.3-11.8,11.8-11.8c6.5,0,11.8,5.3,11.8,11.8c0,6.5-5.3,11.8-11.8,11.8
			C775.2,292,769.9,286.7,769.9,280.2z"/>
		<path class="st48" d="M778.9,280.2c0-1.6,1.3-2.9,2.9-2.9c1.6,0,2.9,1.3,2.9,2.9c0,1.6-1.3,2.9-2.9,2.9
			C780.2,283.1,778.9,281.8,778.9,280.2z"/>
	</g>
	<path class="st13" d="M786.7,282.4c-1.1,1.5-2.9,2.4-4.9,2.4c-2,0-3.8-1-4.9-2.4H773c0.3,4.5,4.1,8.1,8.7,8.1s8.4-3.6,8.7-8.1
		H786.7z"/>
</g>
<g>
	<path class="st13" d="M559.2,504.7c-1.5,0-3.1-0.1-4.6-0.1c4,43.1,7.4,77.7,10.5,109.3c0.3,2.8,1.1,15.8,1.3,18.3
		c0.2,2.3-3.9,14.5-3.7,16.5c1,10.1,5.7,13.3,5.7,13.3l26.7,1.8l2.7-12.6l-2.1-13.7l2.7-131.9C585.3,505.2,572.3,505,559.2,504.7z"
		/>
	<path class="st13" d="M610.1,505.7l6.1,133l-2.7,12l3.8,12.3l24,0.4c0,0,4.5-3.8,5.5-14c0.2-2.7-3.5-16.2-3.2-19.6
		c2.8-31.1,7.8-77.2,12-123.5C640.4,506.1,625.2,505.9,610.1,505.7z"/>
	<g>
		<g>
			<g>
				<g>
					<g>
						<g>
							<g>
								<g>
									<path class="st32" d="M673.2,233.7c-2.7-5.8-7.6-10.8-13.1-12.9L626.7,208v-54.1h-41.3V208L552,220.8
										c-5.6,2.1-10.4,7.1-13.1,12.9l66.4,28L673.2,233.7z"/>
									<g>
										<path class="st36" d="M640.2,143.3c0,46.7-21.5,56-34.2,56c-12.7,0-34.2-9.3-34.2-56c0-23.5,15.3-37.9,34.2-37.9
											C624.9,105.4,640.2,119.8,640.2,143.3z"/>
									</g>
								</g>
							</g>
							<path class="st36" d="M578.4,152c1.4,7.4-0.2,13.9-3.7,14.5c-3.4,0.6-7.3-4.8-8.7-12.2c-1.4-7.4,0.2-13.9,3.7-14.5
								C573.1,139.2,577,144.7,578.4,152z"/>
							<path class="st36" d="M633.7,152c-1.4,7.4,0.2,13.9,3.7,14.5c3.4,0.6,7.3-4.8,8.7-12.2c1.4-7.4-0.2-13.9-3.7-14.5
								C639,139.2,635.1,144.7,633.7,152z"/>
						</g>
					</g>
				</g>
				<path class="st14" d="M571.8,99.1v40.7c14.4-22.5,54.7-18.7,68.3-0.4V98.1C626.6,79.7,586.3,76.6,571.8,99.1z"/>
				<path class="st14" d="M662.8,533.8c0-36.3-0.3-120.7,4.7-189.3c4-55.7,13.4-101.1,13.4-101.1c0-9.2-7.5-19.4-16.8-22.7
					l-35.8-12.9l-22.9,46.6l-21.7-46.6L548,220.7c-9.2,3.3-16.8,13.5-16.8,22.7c0,0,8.3,36,12.6,102.2c3.9,60.7,3.9,150.2,3.9,188
					C547.8,550.3,662.8,549.9,662.8,533.8z"/>
				<path class="st51" d="M605.4,86.9c-12.3,0-24.7,4.2-31.2,13.8v11.1L605.4,86.9z"/>
				<path class="st51" d="M624,225.1l5.5-14.9l33.8,12.2C671.3,225.3,624,225.1,624,225.1z"/>
				<path class="st51" d="M548.7,222.4l33.8-12.2l11,23.5C593.5,233.7,519.8,236.6,548.7,222.4z"/>
				<path class="st32" d="M640.1,139.4c-13.5-18.2-53.6-22-68.1,0.2c0,0,0,0,0,0.1C572,139.7,599.8,114.3,640.1,139.4z"/>
				<path class="st35" d="M585.4,160.7v30c6.3,10.5,14.8,15,20.6,16c5.8,1,14.3,0.3,20.6-7.6v-31l-20.6-8.9L585.4,160.7z"/>
				<polygon class="st22" points="571.8,138.2 570.3,139.8 575.6,160.9 576.6,157.4 				"/>
				<polygon class="st22" points="640.1,138.2 641.6,139.8 636.4,160.9 635.4,157.4 				"/>
				<path class="st11" d="M635.6,137.7c-0.2-0.6-0.5-1-1.2-1c0,0-19.5,0-21.6,0c-1.8,0-4.6,1.2-7,1.2s-5.2-1.2-7-1.2
					c-2.1,0-21.6,0-21.6,0c-0.6,0-1,0.4-1.2,1h-6v2h6c0.7,4.5,3.1,12.7,4.3,12.7h16.7c1.9,0,4.8-3.9,5.8-6.4c0.6-1.6,2-2.2,3-2.2
					s2.3,0.7,3,2.2c1,2.5,3.9,6.4,5.8,6.4h16.7c1.2,0,3.6-8.2,4.3-12.7h6v-2H635.6z M597,151.7c-1.6,0-14.6,0-15.9,0
					c-1.3,0-5.5-13.4-2-13.4c0,0,16.5,0,18.1,0C606.8,138.3,598.5,151.7,597,151.7z M630.5,151.7c-1.3,0-14.4,0-15.9,0
					c-1.6,0-9.8-13.4-0.2-13.4c1.7,0,18.1,0,18.1,0C635.9,138.3,631.8,151.7,630.5,151.7z"/>
				<path class="st12" d="M597,151.7c-1.6,0-14.6,0-15.9,0c-1.3,0-5.5-13.4-2-13.4c0,0,16.5,0,18.1,0
					C606.8,138.3,598.5,151.7,597,151.7z"/>
				<path class="st12" d="M630.5,151.7c-1.3,0-14.4,0-15.9,0c-1.6,0-9.8-13.4-0.2-13.4c1.7,0,18.1,0,18.1,0
					C635.9,138.3,631.8,151.7,630.5,151.7z"/>
				<path class="st22" d="M636.9,157.5l-30.9-6.9l-30.9,6.9c1,10,3.9,24.4,3.9,24.4c7.4,13.6,19.2,17.5,27,17.5
					c7.8,0,19.6-3.1,27-16.3C633,183,635.9,167.3,636.9,157.5z"/>
				<path class="st24" d="M606,152v13.4c0,0-25.1,6.1-29.1-6.6L606,152z"/>
			</g>
		</g>
		<g>
			<g>
				<rect x="627.1" y="260" class="st11" width="25.4" height="12.7"/>
				<rect x="627.8" y="260.6" class="st15" width="24" height="11.3"/>
				<rect x="638.1" y="258.6" class="st18" width="3.3" height="2.8"/>
			</g>
			<rect x="629.4" y="261.7" class="st18" width="7.6" height="9.3"/>
		</g>
	</g>
	<g>
		<path class="st29" d="M595.2,679.6c0,4.1-4.7,7.4-10.5,7.4h-7c-5.8,0-10.5-3.3-10.5-7.4v-15.7c0-4.1,4.7-4.7,10.5-4.7h7
			c5.8,0,10.5,0.7,10.5,4.7V679.6z"/>
		<path class="st30" d="M595.2,675.4c0,3-4.7,5.5-10.5,5.5h-7c-5.8,0-10.5-2.5-10.5-5.5v-11.8c0-3,4.7-9.6,10.5-9.6h7
			c5.8,0,10.5,6.5,10.5,9.6V675.4z"/>
	</g>
	<g>
		<path class="st29" d="M643.4,679.6c0,4.1-4.7,7.4-10.5,7.4h-7c-5.8,0-10.5-3.3-10.5-7.4v-15.7c0-4.1,4.7-4.7,10.5-4.7h7
			c5.8,0,10.5,0.7,10.5,4.7V679.6z"/>
		<path class="st30" d="M643.4,675.4c0,3-4.7,5.5-10.5,5.5h-7c-5.8,0-10.5-2.5-10.5-5.5v-11.8c0-3,4.7-9.6,10.5-9.6h7
			c5.8,0,10.5,6.5,10.5,9.6V675.4z"/>
	</g>
	<path class="st17" d="M531.8,245.1c-0.1,0.2-0.1,0.4-0.2,0.7c1.7,10.5,8.5,55.5,12.8,105.9c32-4.2,103-24.4,112.7-27.3
		c-2.5-11.9-25.9-22.1-25.9-22.1s-77.9,7.2-77.5,1.1c0.4-6.1,4.4-39.5,4.4-39.5L531.8,245.1z"/>
	<path class="st14" d="M531.8,238.9c-9.9,32.9-26.7,98-13.6,106.2c13.1,8.2,113.8-19.3,127.3-23.4c-2.5-11.9-14.7-15.7-14.7-15.7
		s-84.3,11.7-83.9,5.5c0.4-6.1,11.9-50.4,11.9-50.4L531.8,238.9z"/>
	<path class="st17" d="M680.1,245.1c0.1,0.2,0.1,0.4,0.2,0.7c-1.7,10.5-9.5,62.3-13.8,112.7c-32-4.2-86.1-35.8-95.8-38.7
		c2.5-11.9,6.4-16.2,6.4-16.2s84.2,19.9,83.8,13.7c-0.4-6.1-7.1-53.4-7.1-53.4L680.1,245.1z"/>
	<path class="st14" d="M680.1,238.9c9.9,32.9,26.7,98,13.6,106.2c-13.1,8.2-106-23.9-119.6-28c2.5-11.9,5-22.3,5-22.3
		S660.4,312,665,313c5.4,1.1-0.2-6.9-11.8-51.8L680.1,238.9z"/>
	<path class="st51" d="M580.8,298.4c1.7,1.1,73.3,13.8,86.7,15.2C709,333.1,616.1,317.5,580.8,298.4z"/>
	<path class="st15" d="M684.5,304.6c-11.1-9.4-22.7-9.8-22.7-9.8l-0.8-3.1c-4-0.3-30.3,14.4-30.3,14.4s38.7,6.1,47.1,10.9
		C681.7,319,690.8,309.8,684.5,304.6z"/>
	<path class="st52" d="M662.3,295.8c11.2,4.8,23,14.7,22.7,11.7C684.8,304.4,674.4,296.6,662.3,295.8z"/>
	<path class="st15" d="M567.1,288.9l-9,2.2c0,0-1.8-1-7,0.2c-1.8,7.6-3.2,14-3.3,16.1c0,0.3,0.1,0.5,0.4,0.7
		c10.7-0.8,27.2,3.4,27.2,3.4l3.8-16.6C579.2,294.9,571,289.7,567.1,288.9z"/>
	<path class="st52" d="M550.6,292.9c-0.3,1.2-0.5,2.4-0.8,3.5c4.4-1.3,9.7-2.7,14.7-3.4C559.6,292,554.8,292.2,550.6,292.9z"/>
</g>
<g>
	<path class="st53" d="M936.2,690.8c0,0,46.7-58.2,43.6-116.4c-1.5-24.4,5.1-48.7,18.5-69.1c6.5-9.7,13.9-18.7,22-27"/>
	<path class="st1" d="M1018.6,441.6c-3.3,8.1,1.7,37.7,1.7,37.7s24.4-17.5,27.7-25.6c3.3-8.1-0.5-17.4-8.6-20.7
		C1031.2,429.7,1021.9,433.5,1018.6,441.6L1018.6,441.6L1018.6,441.6z"/>
	<path class="st1" d="M975.8,476.6c1.6,8.6,21.9,30.7,21.9,30.7s11-27.9,9.3-36.5c-1.6-8.6-9.9-14.3-18.5-12.7
		C979.9,459.7,974.2,468,975.8,476.6L975.8,476.6z"/>
	<path class="st1" d="M945.3,553.8c5.7,6.6,34.4,15.5,34.4,15.5s-4.6-29.6-10.4-36.3c-5.9-6.5-15.9-7-22.4-1.1
		C940.6,537.6,939.9,547.3,945.3,553.8L945.3,553.8z"/>
	<path class="st1" d="M935.3,617.4c4.5,7.5,31.3,21.1,31.3,21.1s0.4-30-4.1-37.5c-4.5-7.5-14.3-9.9-21.8-5.4
		S930.8,609.9,935.3,617.4z"/>
	<path class="st1" d="M1027.9,521.6c-8.1,3.2-37.7-2-37.7-2s17.7-24.2,25.9-27.5c8.1-3.3,17.4,0.7,20.6,8.9S1036,518.3,1027.9,521.6
		L1027.9,521.6z"/>
	<path class="st1" d="M1015.3,595.8c-8.7,0.7-35.3-13.2-35.3-13.2s24.1-17.8,32.9-18.5c8.8-0.5,16.3,6.2,16.7,15
		C1030.1,587.7,1023.8,595,1015.3,595.8z"/>
	<path class="st1" d="M993.2,666.3c-8.5,2.1-37-7.1-37-7.1s20.8-21.6,29.3-23.7c8.5-2.1,17.1,3,19.3,11.5
		C1006.9,655.6,1001.7,664.2,993.2,666.3z"/>
	<path class="st54" d="M1018.6,441.6c-3.3,8.1,1.7,37.7,1.7,37.7s24.4-17.5,27.7-25.6c3.3-8.1-0.5-17.4-8.6-20.7
		C1031.2,429.7,1021.9,433.5,1018.6,441.6L1018.6,441.6L1018.6,441.6z"/>
	<path class="st54" d="M975.8,476.6c1.6,8.6,21.9,30.7,21.9,30.7s11-27.9,9.3-36.5c-1.6-8.6-9.9-14.3-18.5-12.7
		C979.9,459.7,974.2,468,975.8,476.6L975.8,476.6z"/>
	<path class="st54" d="M945.3,553.8c5.7,6.6,34.4,15.5,34.4,15.5s-4.6-29.6-10.4-36.3c-5.9-6.5-15.9-7-22.4-1.1
		C940.6,537.6,939.9,547.3,945.3,553.8L945.3,553.8z"/>
	<path class="st54" d="M935.3,617.4c4.5,7.5,31.3,21.1,31.3,21.1s0.4-30-4.1-37.5c-4.5-7.5-14.3-9.9-21.8-5.4
		S930.8,609.9,935.3,617.4z"/>
	<path class="st54" d="M1027.9,521.6c-8.1,3.2-37.7-2-37.7-2s17.7-24.2,25.9-27.5c8.1-3.3,17.4,0.7,20.6,8.9
		S1036,518.3,1027.9,521.6L1027.9,521.6z"/>
	<path class="st54" d="M1015.3,595.8c-8.7,0.7-35.3-13.2-35.3-13.2s24.1-17.8,32.9-18.5c8.8-0.5,16.3,6.2,16.7,15
		C1030.1,587.7,1023.8,595,1015.3,595.8z"/>
	<path class="st54" d="M993.2,666.3c-8.5,2.1-37-7.1-37-7.1s20.8-21.6,29.3-23.7c8.5-2.1,17.1,3,19.3,11.5
		C1006.9,655.6,1001.7,664.2,993.2,666.3z"/>
	<path class="st53" d="M936.6,688.4c0,0,66.3-34.2,87.1-88.7c8.6-22.9,24.3-42.4,44.9-55.6c9.8-6.2,20.2-11.5,31-15.8"/>
	<path class="st1" d="M1112.9,494c-6.3,6.1-13.8,35.1-13.8,35.1s29.4-6.1,35.7-12.2c6.4-6.1,6.6-16.1,0.5-22.5
		S1119.3,487.9,1112.9,494L1112.9,494L1112.9,494z"/>
	<path class="st1" d="M1059.7,508.6c-2,8.5,7.6,37,7.6,37s21.3-21.1,23.3-29.7c2-8.5-3.3-17.1-11.8-19.1
		C1070.2,494.8,1061.7,500.1,1059.7,508.6L1059.7,508.6z"/>
	<path class="st1" d="M1000.4,566.8c2.6,8.4,25.2,28.1,25.2,28.1s7.8-29,5.2-37.3c-2.6-8.4-11.4-13.1-19.8-10.6
		C1002.6,549.5,997.9,558.4,1000.4,566.8L1000.4,566.8z"/>
	<path class="st1" d="M965.6,620.9c1.1,8.7,20.1,31.9,20.1,31.9s12.6-27.2,11.4-35.9c-1.1-8.7-9.1-14.9-17.8-13.8
		S964.5,612.2,965.6,620.9L965.6,620.9z"/>
	<path class="st1" d="M1089,570.8c-8.8-0.3-33.6-17.1-33.6-17.1s26-14.9,34.8-14.6c8.8,0.3,15.6,7.7,15.3,16.5
		C1105.2,564.3,1097.8,571.1,1089,570.8L1089,570.8z"/>
	<path class="st1" d="M1047.4,633.6c-8.3-2.9-26.9-26.4-26.9-26.4s29.3-6.5,37.6-3.5c8.3,2.9,12.6,12,9.7,20.3
		C1064.8,632.2,1055.7,636.5,1047.4,633.6L1047.4,633.6z"/>
	<path class="st1" d="M998.6,689.1c-8.6-1.5-31-21.5-31-21.5s27.8-11.3,36.4-9.8c8.6,1.5,14.4,9.7,12.9,18.3
		C1015.5,684.8,1007.3,690.6,998.6,689.1L998.6,689.1L998.6,689.1z"/>
</g>
</svg>
