<?xml version="1.0" encoding="utf-8"?>
<!-- Generator: Adobe Illustrator 27.1.1, SVG Export Plug-In . SVG Version: 6.00 Build 0)  -->
<svg version="1.1" id="_x32_6e08365-e7f3-4f87-b2fd-e29738693ebb"
	 xmlns="http://www.w3.org/2000/svg" xmlns:xlink="http://www.w3.org/1999/xlink" x="0px" y="0px" viewBox="0 0 999 797.2"
	 style="enable-background:new 0 0 999 797.2;" xml:space="preserve">
<style type="text/css">
	.st0{opacity:0.1;fill:#2271FF;enable-background:new    ;}
	.st1{fill:#5F5D7E;}
	.st2{opacity:0.1;enable-background:new    ;}
	.st3{fill:#474157;}
	.st4{fill:#EDEDF4;}
	.st5{fill:#E6E8EC;}
	.st6{fill:url(#SVGID_1_);}
	.st7{fill:#FDC2CC;}
	.st8{fill:#2271FF;}
	.st9{opacity:0.3;enable-background:new    ;}
	.st10{opacity:0.1;}
	.st11{fill:#E81D2A;}
	.st12{fill:#FFD037;}
	.st13{fill:#65617D;}
	.st14{fill:#9D9CB5;}
</style>
<path class="st0" d="M321.2,31.3C352,3.8,400.3-1.7,444.3,0.4C582.5,7.3,707.2,74,815,149.4c39,27.3,77.5,56.7,102.8,94.3
	c51.6,76.6,36.3,182.6-35.5,245.7c-24.4,21.5-54,37.9-84.4,52.5c-54,25.9-112.3,46.7-173.6,52.7c-43.7,4.2-88,0.8-131.5-5.1
	c-121.5-16.5-240.6-52.9-340.6-115.2C108.6,447,67.3,413,49.2,368.8s-6.5-100.2,38.3-126.4c18.5-10.8,40.6-15.7,62.3-20.3
	c31.9-6.8,64.3-13.4,93.1-27.1c29.7-14.2,64.9-41.6,59-73C295.5,88.3,290.5,58.6,321.2,31.3z"/>
<circle class="st0" cx="174.1" cy="129.4" r="31.5"/>
<circle class="st0" cx="108.1" cy="54.4" r="19.5"/>
<circle class="st0" cx="925.6" cy="114.4" r="12"/>
<ellipse class="st0" cx="689.9" cy="788.8" rx="84.2" ry="8.4"/>
<polygon class="st1" points="214,487.3 213.6,507.3 210.7,669 185.3,728.3 98,729.3 98,496.5 189.1,489.3 "/>
<polygon class="st2" points="214,487.3 213.6,507.3 210.7,669 185.3,728.3 98,729.3 98,496.5 189.1,489.3 "/>
<polygon class="st1" points="214,487.3 213.6,507.3 210.7,669 185.3,728.3 192,507.6 192,507.5 189.1,489.3 "/>
<polygon class="st2" points="189.1,489.3 214,487.3 213.6,507.3 192,507.5 98,508.5 98,496.5 "/>
<polygon class="st1" points="999,496.5 999,728 978.7,728 897.3,668.6 897.3,490 970,483.1 974.5,485.2 978.7,487.1 "/>
<rect x="978.7" y="485.2" class="st2" width="20.3" height="242.8"/>
<polygon class="st2" points="999,485.2 999,498.5 978.7,498.7 897.3,499.6 897.3,490 970,483.1 974.5,485.2 978.7,487.1 
	978.7,485.2 "/>
<polygon class="st1" points="999,477.6 999,496.5 0,507.6 0,483.6 94,464.6 912,458.6 "/>
<polygon class="st2" points="999,477.6 999,496.5 0,507.6 0,483.6 "/>
<path class="st3" d="M388.3,195h304.3c12.6,0,22.8,10.2,22.8,22.8v226c0,12.6-10.2,22.8-22.8,22.8H388.3
	c-12.6,0-22.8-10.2-22.8-22.8v-226C365.5,205.2,375.7,195,388.3,195z"/>
<rect x="393.7" y="219.5" class="st4" width="294.1" height="221.6"/>
<circle class="st5" cx="382.2" cy="330.3" r="4.8"/>
<circle class="st5" cx="700.8" cy="330.8" r="8"/>
<linearGradient id="SVGID_1_" gradientUnits="userSpaceOnUse" x1="778.7084" y1="-47.51" x2="778.7084" y2="468.6565" gradientTransform="matrix(1 0 0 -1 -100.5 746.5198)">
	<stop  offset="0" style="stop-color:#808080;stop-opacity:0.25"/>
	<stop  offset="0.54" style="stop-color:#808080;stop-opacity:0.12"/>
	<stop  offset="1" style="stop-color:#808080;stop-opacity:0.1"/>
</linearGradient>
<path class="st6" d="M803.9,509.1c-0.2-1.2-0.6-2.4-1.1-3.5c0.8-2.6,1.2-4.2,1.2-4.2s0-0.4-0.1-1c-1.2-7.6-7.9-13.1-15.5-12.9
	c-6,0.1-17.4,0.5-30,1.9c0.7-5,1.6-11.1,2.5-17.3l1.7,0.2c0.4,0,0.8,0,1.2,0.1h0.5c1.3,0.1,2.6-0.3,3.7-1.1c0.9-0.8,0.9-2.2,0-3.1
	c-0.2-0.2-0.4-0.4-0.7-0.5c3,0.3,5.9-0.9,7.8-3.3c1.7-2.4,1.7-5.7,0-8.1c-2.1-3-6.6-5-6.8-8.5c-0.1-2,1.2-3.8,2.3-5.6
	c5.2-9.1,3.7-20.5-3.7-28c-1.4-1.4-2.9-2.7-4.4-4c-2.2-8.1-4.5-15.3-5.2-15.5c-0.9-0.3-2.4-2.2-3.8-3.8c0.1-1.4,0.1-2.8-0.1-4.1
	c-1.1-7-8-12-11.8-18.2s-4.5-13.8-3.5-20.8s3.5-13.9,5.5-20.8c1.5-5.1,2.8-10.6,1.1-15.7c-1.2-3.6-3.8-6.8-6.5-9.7
	c-6.4-7.1-13.8-13.7-22.9-18c-6.3-3-13.3-4.5-20.3-4.3h-0.1l-1.1,0.1l-0.8,0l-0.8,0.1l-0.8,0.1l0,0c-0.8,0.1-1.7,0.2-2.5,0.4
	c-6.1-1.4-12.3-2.1-18.5-2.1h-0.8c-1.9-0.1-3.7,0.3-5.3,1.2c-2.2,1.5-2.5,4.3-3.2,6.8c-1.2,4-3.7,7.6-7.2,10c-2.4,1.7-5.2,3-7.5,4.8
	s-4.1,4.5-3.5,7.2c0.5,2.2,2.6,3.9,5,4.9c-0.3,0.4-0.6,0.7-0.9,1.1c0.5,0.2,1,0.4,1.4,0.5c3,0.9,6.2,1,9.3,1.8
	c0.8,0.2,1.7,0.5,2.5,0.8c-2.7,5.1-4.1,10.8-4.1,16.5c0,13,7.2,25,18.6,31.2c0,0.3,0,0.7,0,1c0.3,10.4-0.5,23.1-5.8,25.3
	s-10.5,4.6-13.6,6.1l-1,0.5c-0.8-0.4-1.7-0.8-2.5-1.2c0,0-4.2-0.5-3.5,2.7c0,0-12.8-2-19.9,3.5s-18.6,17-20.9,19.9
	s-19.8,9.5-19.8,9.5s5.5-7.7,3.1-17.2c0,0-2.6-11.4-1.4-16s4.5-21.6,4.5-21.6s0.5-17.9-9.3-26.2s-16.6-15-12.8-7
	c1.7,3.7,3.5,7.2,5.5,10.7c0,0-23.4,5.6-15.1,14.2s10.6,8.7,10.6,8.7s-2.8,21.4-3.3,25.4s-5,34.4-5,34.4s-0.2,14.5,2.3,16.7
	c0,0,1.7,9.3,12.1,9c0,0,19.9-0.5,25.4-2.7s24.7-14.2,26.7-13.5c0.1,0.1,0.3,0.1,0.4,0.3c0.1,0.1,0.2,0.2,0.3,0.3
	c-2,4.4-6.7,19.5-4.7,26.9c0,0-1.8,20.9,8.8,27.7c0,0,15.3,25.9,9.6,39.9c-0.5,1.1-0.9,2.2-1.2,3.2c-8.8-7.3-22.2-14-42.7-17.7
	c-2.1-0.4-4.2-0.8-6.2-1.3c-5.8-1.4-21.8-2.7-29.5,22.6c-1.8,5.9-4,11.6-6.8,17.1c-3,6.1-6.3,14.8-6.4,23.4
	c-0.2,12.1,6.1,24.1,28.8,28.5c0.2,9,1.3,19.7,4.4,27.4c6.3,15.7,16.4,41.1,16.4,41.1s12.1,25.9,12.8,36.4c0.5,6.8,1.2,15.8,0.7,22
	c0,0.4-0.1,0.7-0.1,1.1c-1,1.1-2.2,2.1-3.4,3.1c-1.8,1-7.5,7.2-7.5,8.7c0,1.4,0.1,2.9,0.4,4.3c-2.7,2.4-4.2,5-4.2,7.6
	c0,13.5,38.4,24.5,85.7,24.5s85.7-11,85.7-24.5c0-12.3-32-22.5-73.6-24.2c8.7-3.5,16.4-7.1,19.6-10c0.7-0.5,1.2-1.2,1.5-2.1l-8-18.7
	c0,0-0.6,0.1-1.6,0.4l-0.6-0.8c-3.6-5.5-10.5-16.3-10.5-19.3c0-1.1-1.8-8.1-4.5-17.6v-30.6c26.3,4,60.1-1.4,60.1-1.4l0.2-0.1h0.7
	v-0.4c4.5-2.5,27.3-15.8,34.1-33.5c2-5.2-0.5-12.5-5.4-20.5c3.5-8.6,12-30.8,11.2-39.6c0-0.5-0.1-1-0.1-1.5c0.1-0.9,0.1-1.8,0.1-2.7
	c1-13,9-36.8,9-36.8S804,509.7,803.9,509.1z M633.9,451.4c1.8,3.2,3.8,7.3,4.5,9l0,0C638.4,460.3,635.8,455.4,633.9,451.4
	L633.9,451.4z M635.8,731.5l-0.2,0.1v-1c-0.1-2.6,0-5.2,0.2-7.8c0-1.4-0.3-2.8-0.9-4.1c-3.1-7.7-5.1-15.9-6.1-24.1
	c-1-8.7-1.8-18.2-1.3-20.7c0.8-3.7,1.4-31.8,0.5-45.7l15.5,3.5l18,36.7c0,0,11.6,17.9,15.2,32.1v14.2c-1,4.2-2.9,8.2-5.4,11.7
	c-2.4,3.3-4.7,6.6-6.9,10c-0.7,1.1-1.4,2.2-2.1,3.2c-0.2,0-12.1,0.7-14.1,2.9c-1.2,1.4-3.4,3.5-3.8,5.7l-0.5,0.1
	C641.5,741.3,635.8,731.5,635.8,731.5L635.8,731.5z"/>
<path class="st2" d="M711.9,718.6l-4,13l-17,14.8l-25,7.2c0,0-11.8-6.4-7.8-7.7c1.1-0.3,2.4-1.6,3.8-3.3c-1.4,5.1,9.7-1.5,9.7-1.5
	s28.8-20.5,31.8-22.8c2-1.3,4.1-2.3,6.4-2.9C711.1,717.4,711.9,718.6,711.9,718.6z"/>
<path class="st7" d="M711.9,718.6l-4,13l-17,14.8l-25,7.2c0,0-11.8-6.4-7.8-7.7c1.1-0.3,2.4-1.6,3.8-3.3c1.2-1.5,2.3-3.1,3.3-4.8
	c2.1-3.4,4.5-6.8,6.8-10c3.5-4.9,5.6-10.6,6.3-16.6c1.8-13.8-16-41.5-16-41.5l-32.2-66.2l45,5.5c0,0,24.2,83.2,24.2,87.2
	c0,3,6.8,13.8,10.4,19.3C711.1,717.4,711.9,718.6,711.9,718.6z"/>
<ellipse class="st1" cx="687" cy="771" rx="85.1" ry="24.5"/>
<path class="st8" d="M719.9,734.6c-0.3,0.8-0.8,1.5-1.5,2.1c-6.2,5.7-29.3,14.1-43.6,18.7c-3.7,1.3-7.6,2.4-11.4,3.2
	c-3.5,0.2-10.8-2-15.8-5.1s-0.5-7.4,1.5-9.7s14-2.9,14-2.9c-5.8,9.6,8.5,1.2,8.5,1.2s28.8-20.5,31.8-22.8s8.5-3.5,8.5-3.5
	L719.9,734.6z"/>
<path class="st9" d="M719.9,734.6c-0.3,0.8-0.8,1.5-1.5,2.1c-6.2,5.7-29.3,14.1-43.6,18.7c-3.7,1.3-7.6,2.4-11.4,3.2
	c-3.5,0.2-10.8-2-15.8-5.1s-0.5-7.4,1.5-9.7s14-2.9,14-2.9c-5.8,9.6,8.5,1.2,8.5,1.2s28.8-20.5,31.8-22.8s8.5-3.5,8.5-3.5
	L719.9,734.6z"/>
<path class="st2" d="M718.4,736.7c-6.2,5.7-29.3,14.1-43.6,18.7C687.8,744.4,709.5,738.7,718.4,736.7z"/>
<ellipse class="st2" cx="687" cy="763.1" rx="17" ry="4.9"/>
<rect x="677.5" y="633.6" class="st1" width="17.5" height="129.5"/>
<path class="st2" d="M695,640.1v15c-3.5-1.1-11.5-5.6-17.5-9.2v-12.2h3.7L695,640.1z"/>
<path class="st3" d="M653.8,577.3c0,0,57.8-14.9,72.2-26s70.8,41.2,63.4,61s-34.6,34.1-34.6,34.1s-75.1,12.2-87.9-13.3
	S653.8,577.3,653.8,577.3z"/>
<path class="st2" d="M653.8,577.3c0,0,57.8-14.9,72.2-26s70.8,41.2,63.4,61s-34.6,34.1-34.6,34.1s-75.1,12.2-87.9-13.3
	S653.8,577.3,653.8,577.3z"/>
<path class="st3" d="M648.8,571.3c0,0,57.8-14.9,72.2-26s70.8,41.2,63.4,61s-34.6,34.1-34.6,34.1s-75.1,12.2-87.9-13.3
	S648.8,571.3,648.8,571.3z"/>
<path class="st7" d="M746.2,388.9v14l-14.5,4.7L707,425.8l-6.5,4.8l-29.2-11.8l-18.5-19.5c0,0,0.9-0.5,2.5-1.3l1-0.5
	c3.1-1.6,8.1-4,13.5-6.2s6.1-14.9,5.8-25.4v-1c-0.2-7.4-1-13.4-1-13.4s3-0.6,7.5-1.2c12.3-1.8,35.3-4.3,33.3,3.2
	c-0.6,2.6-0.6,5.2,0,7.8c0.1,0.3,0.1,0.6,0.2,0.9c2.1,9.1,8.5,18.6,8.5,18.6l20,7.2l0.6,0.2L746.2,388.9z"/>
<path class="st7" d="M746.2,393.1v-4.2c1.6-0.3,3.2-0.3,4.8,0c1.8,0.5,5.1,5.8,6.6,6.2s10.7,34.8,9.7,37.8s-10.5,70.7-10.5,70.7
	l-19,21l-3.8-57.8l12.2-34.2V393.1z"/>
<path class="st7" d="M647.4,550.4c0,0-17.4,3.8-15.2,9.2s12,5.8,12,5.8L647.4,550.4z"/>
<path class="st7" d="M671.7,439.4l-13.2,28.6l-15.8,11.5l-2.8-17.8c0,0-5.3-11.8-7.6-13.7c-0.1-0.1-0.2-0.2-0.4-0.3
	c-2-0.8-21,11.2-26.5,13.5s-25.2,2.8-25.2,2.8l8.8-31.2c0,0,17.5-6.5,19.8-9.5s13.8-14.5,20.8-20s19.8-3.5,19.8-3.5l0.2,0.1l3.3,1.4
	l9.5,23.2L671.7,439.4z"/>
<path class="st7" d="M636.9,724.2c-0.2,2.6-0.3,5.2-0.2,7.8c0.1,2.8,0.2,5.2,0.2,5.2l-5.8,12c0,0-19.8,6.5-16.5,3.8
	c1.1-1,1.7-3.4,2-6.7c0.5-6.2-0.2-15.2-0.7-22.1c-0.8-10.5-12.8-36.5-12.8-36.5s-10-25.5-16.2-41.2s-4-44.2-4-44.2s1-21.5,5.5-28
	s22-8.8,22-8.8l8.2,27.2c0,0,6.8,25.5,9.2,29.2s1.8,48.5,0.8,53.2c-0.5,2.4,0.3,12,1.3,20.7c1,8.3,3,16.4,6.1,24.2
	C636.7,721.3,637,722.7,636.9,724.2z"/>
<path class="st2" d="M636.9,737.2l-5.8,12c0,0-19.8,6.5-16.5,3.8c1.1-1,1.7-3.4,2-6.7c0.7-0.7,1.5-1.5,2.2-2.3
	c5-5.2,11.1-9.3,17.8-11.9l0,0C636.8,734.8,636.9,737.2,636.9,737.2z"/>
<path class="st8" d="M646,755c0,0,0,0.1,0,0.1c-1,4.8-17.5,11.2-17.5,11.2s-10.5,1.8-16.5,3.2c-0.5,0.1-0.9,0.2-1.4,0.1
	c-4.6-0.3-4.8-9.3-4.8-10.6s5.8-7.8,7.5-8.8c2-1.6,3.8-3.4,5.6-5.3c5.1-5.3,11.3-9.5,18.2-12.2l0,0C637,732.9,646.8,750.1,646,755z"
	/>
<path class="st9" d="M646,755c0,0,0,0.1,0,0.1c-1,4.8-17.5,11.2-17.5,11.2s-10.5,1.8-16.5,3.2c-0.5,0.1-0.9,0.2-1.4,0.1
	c-4.6-0.3-4.8-9.3-4.8-10.6s5.8-7.8,7.5-8.8c2-1.7,3.9-3.5,5.6-5.4c5-5.2,11.1-9.3,17.9-12l0.3-0.1C637,732.9,646.8,750.1,646,755z"
	/>
<path class="st2" d="M646,755c0,0,0,0.1,0,0.1c-1,4.8-17.5,11.2-17.5,11.2s-10.5,1.8-16.5,3.2c-0.5,0.1-0.9,0.2-1.4,0.1
	c5.4-3.7,18.6-12.7,20.4-12.9S641.5,754.2,646,755z"/>
<path class="st2" d="M715.4,362.3c-6.2,5.1-11.9,4.4-20.5,4.4c-6.2,0-14.3,2.2-19.5-0.6c-0.2-7.8-1-14.4-1-14.4s43.5-8.2,40.8,2
	C714.6,356.5,714.6,359.5,715.4,362.3z"/>
<path class="st7" d="M728.4,333.7c0,19.7-16,35.8-35.8,35.8l0,0c-0.9,0-1.8,0-2.7-0.1l0,0c-19.7-1.5-34.4-18.7-32.9-38.4
	c1.5-19.7,18.7-34.4,38.4-32.9C714.1,299.5,728.4,315,728.4,333.7L728.4,333.7z"/>
<path class="st2" d="M662.2,424.4l9.5,15L658.4,468l-15.8,11.5l-2.8-17.8c0,0-5.3-11.8-7.6-13.7c0.7-1.6,1.1-2.4,1.1-1.8
	c0,2.5,6.2,13.8,6.2,13.8c19-6.5,13.1-31.8,13.1-31.8s-2.4-22.5-3.3-28.4l3.3,1.4L662.2,424.4z"/>
<path class="st2" d="M746.2,388.9v14l-14.5,4.7L707,425.8l-6.5,4.8l-29.2-11.8l-18.5-19.5c0,0,0.9-0.5,2.5-1.3l1-0.5
	c12.9,5.9,26.8,8,36.8,8.8c4.6,0.4,9.2,0.5,13.8,0.3c37.7-6,38.8-15.1,37.8-18.3L746.2,388.9z"/>
<path class="st8" d="M756.9,615.6c-9.4,4.6-19.1,8.7-29,12.2c-17.2,6.2-55.2-2-60-3.2s-41.2-15.8-55.2-21.2s-17.5-1-20.8-1.5
	s-5.5-6.8-6-8.5s9-17,14.2-24.8s21-6.2,23.2-6.8s18,0,18,0s-1-5,4.8-19s-9.5-40-9.5-40c-10.5-6.8-8.8-27.8-8.8-27.8
	c-2.5-9.2,5.5-30.5,5.5-28s6.2,13.8,6.2,13.8c19-6.5,13.1-31.8,13.1-31.8s-2.8-26.2-3.5-29.5s3.5-2.8,3.5-2.8
	c0.8,0.4,1.6,0.8,2.5,1.2c13.2,6.2,27.6,8.5,37.8,9.2c4.6,0.4,9.2,0.5,13.8,0.3c45.7-7.4,37.6-19.1,37.3-19.5l2.2,0.8
	c16.5,12,11.5,51.8,11.5,51.8l-6.2,29.7l-4.6,22.1c0,0,16.2,98.5,17.8,103.5S756.9,615.6,756.9,615.6z"/>
<path class="st2" d="M635.2,570.6c-1,0.8-12.2,24-4,30.5S635.2,570.6,635.2,570.6z"/>
<path class="st2" d="M643.2,573.9c0.2,0.8,23.5,37.8,36.2,40.8L643.2,573.9z"/>
<path class="st2" d="M699.2,281.1l-3.7,0.8c1-0.4,2.1-0.7,3.1-0.9L699.2,281.1z"/>
<path class="st2" d="M755.2,440.6l-7,29.7c-3.6-1.6-6.9-3.8-9.7-6.5c-2.2-2.1-4.2-4.5-7.1-5.9c-3.7-1.8-8.1-1.5-12.3-1.7
	c-5.2-0.2-10.4-1.1-15.4-2.6c-1.5-0.4-2.8-1-4-1.9c-2.4-2.1-2.2-5.5-2-8.5c0.4-5.8,0.5-11.5,0.2-17.3c-0.1-1.1-0.1-2.2-0.2-3.2
	c-0.4-4.8-1.7-10.4-6.6-12.5c-2.5-1-5.6-0.9-8-2.1c-0.4-0.2-0.7-0.4-1-0.6c-3.6-2.5-3.9-7.6-3.8-11.8c0.2-5.8,0.4-11.7,0.6-17.5
	c0.2-2.9,0.1-5.8-0.2-8.6l0,0c-0.2-1.9-0.8-3.8-1.6-5.5c-2.2-4.6-6.7-8.5-7.5-13.4c0-0.2-0.1-0.5-0.1-0.7c-0.4-4.4,2.3-8.5,3.3-12.8
	c1.9-8.7-4.6-18.2-14.2-20.7c-3-0.8-6.2-0.9-9.2-1.8c-0.5-0.1-0.9-0.3-1.4-0.5c7.2-9.7,19.7-16,33.7-16c22.3,0,40.4,16,40.4,35.8
	c0,11.2-5.8,21.2-14.9,27.8c0.1,0.3,0.1,0.6,0.2,0.9c2.3,9.1,9.6,18.6,9.6,18.6l22.6,7.2l2.5,0.8
	C760.9,400.9,755.2,440.6,755.2,440.6z"/>
<path class="st2" d="M767.5,469.3c-0.2,0-0.4,0-0.6-0.1C767.1,469.2,767.3,469.3,767.5,469.3z"/>
<path class="st3" d="M690.2,280.1c-6.3-1.5-12.7-2.2-19.1-2.2c-2.1,0-4.3,0.1-6,1.3c-2.2,1.5-2.5,4.4-3.2,6.8c-1.2,4-3.7,7.6-7.2,10
	c-2.4,1.7-5.2,3-7.4,4.8s-4,4.5-3.4,7.2s3.6,4.7,6.6,5.6s6.2,1,9.2,1.8c9.6,2.5,16.1,12,14.2,20.6c-1,4.3-3.7,8.4-3.3,12.8
	c0.5,5.2,5.3,9.3,7.6,14.1c2.1,4.4,1.9,9.4,1.8,14.2l-0.6,17.5c-0.2,4.6,0.2,10.2,4.8,12.4c2.4,1.2,5.5,1.1,8,2.1
	c4.9,2.1,6.2,7.7,6.6,12.5c0.6,6.8,0.6,13.7,0.1,20.5c-0.2,3-0.4,6.4,2,8.5c1.2,0.9,2.5,1.6,4,1.9c5,1.6,10.2,2.4,15.4,2.6
	c4.2,0.2,8.6-0.1,12.3,1.7c2.9,1.4,4.9,3.8,7.1,5.9c6.4,5.9,14.5,9.4,23.2,10.2c1.8,0.2,4,0.1,5.2-1.1s0.5-3.8-1.3-3.6
	c3.2,0.5,6.4-0.7,8.4-3.2c1.7-2.5,1.7-5.7,0-8.2c-2.1-3-6.5-5-6.8-8.6c-0.1-2,1.2-3.8,2.2-5.6c5.2-9.1,3.7-20.5-3.6-28
	c-4.7-4.9-11.7-8.5-13.4-14.8c-1.1-4.2,0.6-8.5-0.1-12.8c-1-7-7.9-12-11.7-18.2s-4.5-13.8-3.5-20.9s3.4-14,5.4-20.9
	c1.5-5.1,2.7-10.6,1.1-15.7c-1.2-3.6-3.8-6.8-6.4-9.8c-6.4-7.1-13.7-13.8-22.8-18s-20.1-5.9-29.7-2.7"/>
<path class="st2" d="M690.2,280.1c-6.3-1.5-12.7-2.2-19.1-2.2c-2.1,0-4.3,0.1-6,1.3c-2.2,1.5-2.5,4.4-3.2,6.8c-1.2,4-3.7,7.6-7.2,10
	c-2.4,1.7-5.2,3-7.4,4.8s-4,4.5-3.4,7.2s3.6,4.7,6.6,5.6s6.2,1,9.2,1.8c9.6,2.5,16.1,12,14.2,20.6c-1,4.3-3.7,8.4-3.3,12.8
	c0.5,5.2,5.3,9.3,7.6,14.1c2.1,4.4,1.9,9.4,1.8,14.2l-0.6,17.5c-0.2,4.6,0.2,10.2,4.8,12.4c2.4,1.2,5.5,1.1,8,2.1
	c4.9,2.1,6.2,7.7,6.6,12.5c0.6,6.8,0.6,13.7,0.1,20.5c-0.2,3-0.4,6.4,2,8.5c1.2,0.9,2.5,1.6,4,1.9c5,1.6,10.2,2.4,15.4,2.6
	c4.2,0.2,8.6-0.1,12.3,1.7c2.9,1.4,4.9,3.8,7.1,5.9c6.4,5.9,14.5,9.4,23.2,10.2c1.8,0.2,4,0.1,5.2-1.1s0.5-3.8-1.3-3.6
	c3.2,0.5,6.4-0.7,8.4-3.2c1.7-2.5,1.7-5.7,0-8.2c-2.1-3-6.5-5-6.8-8.6c-0.1-2,1.2-3.8,2.2-5.6c5.2-9.1,3.7-20.5-3.6-28
	c-4.7-4.9-11.7-8.5-13.4-14.8c-1.1-4.2,0.6-8.5-0.1-12.8c-1-7-7.9-12-11.7-18.2s-4.5-13.8-3.5-20.9s3.4-14,5.4-20.9
	c1.5-5.1,2.7-10.6,1.1-15.7c-1.2-3.6-3.8-6.8-6.4-9.8c-6.4-7.1-13.7-13.8-22.8-18s-20.1-5.9-29.7-2.7"/>
<path class="st2" d="M636.7,502.9c0,0,8.5,3.2,17.5-5.8S636.7,502.9,636.7,502.9z"/>
<g class="st10">
	<path d="M693.9,280c1.6-0.3,3.3-0.5,5-0.6c-2.3-0.1-4.7-0.1-7,0.2L693.9,280z"/>
	<path d="M744.1,462.8c-2.2-2.1-4.2-4.5-7.1-5.9c-3.7-1.8-8.1-1.5-12.3-1.7c-5.2-0.2-10.4-1.1-15.4-2.6c-1.5-0.4-2.8-1-4-1.9
		c-2.4-2.1-2.2-5.5-2-8.5c0.5-6.8,0.5-13.7-0.1-20.5c-0.4-4.8-1.7-10.4-6.7-12.5c-2.5-1.1-5.6-0.9-8-2.1c-4.6-2.3-5-7.8-4.8-12.4
		c0.2-5.8,0.4-11.7,0.6-17.5c0.2-4.8,0.3-9.8-1.8-14.2c-2.3-4.9-7.1-8.9-7.6-14.1c-0.4-4.4,2.3-8.5,3.3-12.8
		c1.9-8.7-4.6-18.2-14.2-20.6c-3-0.8-6.2-0.9-9.2-1.8s-5.9-2.8-6.5-5.5s1.2-5.4,3.4-7.2s5.1-3.1,7.4-4.8c3.4-2.4,6-6,7.1-10
		c0.7-2.4,1-5.2,3.2-6.8c1.2-0.8,2.6-1.2,4.1-1.2c-0.9,0-1.8,0-2.7,0c-2.1,0-4.3,0.1-6,1.2c-2.2,1.6-2.5,4.4-3.2,6.8
		c-1.2,4-3.7,7.6-7.2,10c-2.4,1.7-5.2,3-7.4,4.8s-4,4.5-3.4,7.2s3.5,4.6,6.5,5.5s6.2,1,9.2,1.8c9.6,2.5,16.1,12,14.2,20.6
		c-1,4.3-3.7,8.4-3.3,12.8c0.5,5.2,5.3,9.3,7.6,14.1c2.1,4.4,1.9,9.4,1.8,14.2c-0.2,5.8-0.4,11.7-0.6,17.5
		c-0.2,4.6,0.2,10.2,4.8,12.4c2.4,1.2,5.5,1.1,8,2.1c4.9,2.1,6.2,7.7,6.6,12.5c0.6,6.8,0.6,13.7,0.1,20.5c-0.2,3-0.4,6.4,2,8.5
		c1.2,0.9,2.5,1.6,4,1.9c5,1.6,10.2,2.4,15.4,2.6c4.2,0.2,8.6-0.1,12.3,1.7c2.9,1.4,4.9,3.8,7.1,5.9c6.4,5.9,14.5,9.4,23.2,10.2
		c1.1,0.1,2.2,0.1,3.3-0.1C757.8,471.9,750.2,468.4,744.1,462.8z"/>
</g>
<path class="st2" d="M588.9,432.6c0,0-8,7.3-6.8,10.3S588.9,432.6,588.9,432.6z"/>
<path class="st3" d="M596.3,527c-5.8-1.4-21.7-2.7-29.2,22.7c-1.8,5.9-4,11.6-6.7,17.2c-7.3,14.9-16.6,45.6,24.6,52.3l99,22.5
	c0,0,53,6.5,56.5,4s3-8,3-8s-58.5,0-70-18s-12-42.5-12-42.5s1.4-37.8-59-48.8C600.5,528,598.4,527.5,596.3,527z"/>
<path class="st2" d="M596.3,527.2c-5.8-1.4-21.7-2.7-29.2,22.7c-1.8,5.9-4,11.6-6.7,17.2c-7.3,14.9-16.6,45.6,24.6,52.3l99,22.5
	c0,0,53,6.5,56.5,4s3-8,3-8s-58.5,0-70-18s-12-42.5-12-42.5s1.4-37.8-59-48.8C600.5,528.1,598.4,527.6,596.3,527.2z"/>
<path class="st3" d="M803.9,501.1c-1.2-7.6-7.8-13.1-15.5-12.9c-14.2,0.3-58.1,2.2-78.4,15.5c0,0-15.5,10-20,10s-65.5,52,25,98.5
	c0,0,48.5,13.8,67.5-18.6c0,0,13.5-34.8,12.5-46.8s9-44.5,9-44.5S804,501.8,803.9,501.1z"/>
<path class="st2" d="M803.9,509.9c-1.1-7-7.8-12.1-15.5-11.9c-14.2,0.2-58.1,2-78.4,14.3c0,0-15.5,9.2-20,9.2s-65.5,48,25,90.9
	c0,0,48.5,12.7,67.5-17.2c0,0,13.5-32.1,12.5-43.2s9-41.1,9-41.1S804,510.5,803.9,509.9z"/>
<rect x="739.5" y="612.1" class="st1" width="16" height="34.1"/>
<ellipse class="st2" cx="170.2" cy="470.7" rx="45" ry="2.9"/>
<path class="st8" d="M208,359.2c-1,1.3-1.7,2.8-2.3,4.3c-0.1,0.4-0.3,0.8-0.4,1.2c-0.3-0.1-0.5-0.2-0.8-0.3
	c-1.2-0.3-2.4-0.4-3.6-0.3c0-0.5,0.1-1,0.1-1.5c0.1-5.3-0.5-12.6-5.5-9.5c-4.8,3-1.4,8,1.7,11.2l0.8,0.8c-2.8,2-3.4,6.7-3.9,11.6
	s-4.6,10.3-7.4,13.3c-0.3,0.3-0.5,0.6-0.8,0.9c-2.3-1.8-5.2-2.6-8-2.1c-0.1-0.4-0.2-0.9-0.4-1.4c-2.2-8.1-6.9-22.1-12.8-25.2l0.8-1
	c2.5-3.3,5.4-8.2,1.2-9.5s-4.6,4.2-4.3,8.4c0,0.5,0.1,1,0.1,1.5c-1.7,0.1-3.3,0.9-4.4,2.1l-0.6-0.8c-3.4-4-9.6-10.4-11.5-5.6
	c-1.8,4.5,3.7,10.3,7.6,13.7l0.2,0.2c-2.6,10.5,8.7,19.1,14.8,22.9l0.8,0.5c-8.4,9.9-13.6,28.5-13.6,28.5l23.5,4.2
	c0,0,15.6-13.5,13.6-26.1h0.2c15.6-3.1,19.1-19.7,16.7-29.6l0.3-0.1c2.8-1.2,5.3-3,7.2-5.5C221.7,360.1,212.5,353.3,208,359.2z"/>
<path class="st2" d="M208,359.2c-1,1.3-1.7,2.8-2.3,4.3c-0.1,0.4-0.3,0.8-0.4,1.2c-0.3-0.1-0.5-0.2-0.8-0.3
	c-1.2-0.3-2.4-0.4-3.6-0.3c0-0.5,0.1-1,0.1-1.5c0.1-5.3-0.5-12.6-5.5-9.5c-4.8,3-1.4,8,1.7,11.2l0.8,0.8c-2.8,2-3.4,6.7-3.9,11.6
	s-4.6,10.3-7.4,13.3c-0.3,0.3-0.5,0.6-0.8,0.9c-2.3-1.8-5.2-2.6-8-2.1c-0.1-0.4-0.2-0.9-0.4-1.4c-2.2-8.1-6.9-22.1-12.8-25.2l0.8-1
	c2.5-3.3,5.4-8.2,1.2-9.5s-4.6,4.2-4.3,8.4c0,0.5,0.1,1,0.1,1.5c-1.7,0.1-3.3,0.9-4.4,2.1l-0.6-0.8c-3.4-4-9.6-10.4-11.5-5.6
	c-1.8,4.5,3.7,10.3,7.6,13.7l0.2,0.2c-2.6,10.5,8.7,19.1,14.8,22.9l0.8,0.5c-8.4,9.9-13.6,28.5-13.6,28.5l23.5,4.2
	c0,0,15.6-13.5,13.6-26.1h0.2c15.6-3.1,19.1-19.7,16.7-29.6l0.3-0.1c2.8-1.2,5.3-3,7.2-5.5C221.7,360.1,212.5,353.3,208,359.2z"/>
<path class="st8" d="M161.2,366l-2.7,8.1c0,0-1.5-1.1-3.5-2.8c-3.9-3.4-9.4-9.2-7.6-13.7c1.9-4.8,8.1,1.5,11.5,5.6
	C160.3,364.8,161.2,366,161.2,366z"/>
<path class="st8" d="M167,361.4c-0.8,1.1-1.7,2.1-2.7,3.1c-0.2-1.4-0.4-2.8-0.5-4.2c-0.2-4.1,0.2-9.6,4.3-8.4S169.5,358.1,167,361.4
	z"/>
<path class="st8" d="M202.5,362.7c-0.1,2.6-0.3,4.8-0.3,4.8c-1.2-0.9-2.4-2-3.4-3.1c-3.1-3.2-6.5-8.2-1.7-11.2
	C202,350.1,202.6,357.4,202.5,362.7z"/>
<path class="st8" d="M218.7,366.2c-1.9,2.4-4.4,4.3-7.2,5.5c-0.8,0.3-1.6,0.6-2.4,0.9l-3.2-4.5c0.3-1.5,0.8-3,1.3-4.4
	c0.6-1.5,1.3-3,2.3-4.3C214,353.3,223.1,360.1,218.7,366.2z"/>
<path class="st2" d="M158.9,363.2c1.4,1.6,2.3,2.8,2.3,2.8l-2.7,8.1c0,0-1.5-1.1-3.5-2.8c0.4-2.6,1.5-5,3.1-7.1
	C158.4,363.9,158.7,363.5,158.9,363.2z"/>
<g>
	<circle class="st11" cx="539.9" cy="325.5" r="54.9"/>
	<circle class="st4" cx="540.2" cy="325.7" r="40.2"/>
	<g>
		<path class="st11" d="M540.2,360.7L540.2,360.7c-4,0-7.2-3.2-7.2-7.2v-55.6c0-4,3.2-7.2,7.2-7.2l0,0c4,0,7.2,3.2,7.2,7.2v55.6
			C547.4,357.5,544.2,360.7,540.2,360.7z"/>
		<path class="st11" d="M505.2,325.7L505.2,325.7c0-4,3.2-7.2,7.2-7.2H568c4,0,7.2,3.2,7.2,7.2v0c0,4-3.2,7.2-7.2,7.2h-55.6
			C508.4,332.9,505.2,329.7,505.2,325.7z"/>
	</g>
</g>
<path class="st2" d="M167,361.4c-0.8,1.1-1.7,2.1-2.7,3.1c-0.2-1.4-0.4-2.8-0.5-4.2C165,360.4,166.1,360.8,167,361.4z"/>
<path class="st8" d="M180.5,393.4l-6.8,3c0,0-1.5-0.7-3.6-2.1c-7.2-4.4-21.6-15.6-12-28.7c9.7-13.1,17.8,10.4,21,21.9
	C180,391,180.5,393.4,180.5,393.4z"/>
<path class="st2" d="M198.7,364.4c1-1,2.3-1.6,3.8-1.7c-0.1,2.6-0.3,4.8-0.3,4.8C200.9,366.5,199.8,365.5,198.7,364.4z"/>
<path class="st2" d="M211.5,371.6c-0.8,0.3-1.6,0.6-2.4,0.9l-3.2-4.5c0.3-1.5,0.8-3,1.3-4.4C209.3,364.8,210.8,367.8,211.5,371.6z"
	/>
<path class="st8" d="M194.5,401.4l-1.1,0.2c-22.9,3.5-7.6-8.9-7.6-8.9s1-1,2.4-2.5c2.8-3,6.9-8.4,7.4-13.3
	c0.7-7.4,1.5-14.4,10.3-12.4C214.6,366.5,216.2,397,194.5,401.4z"/>
<rect x="150.3" y="458.4" class="st3" width="43.8" height="11.5"/>
<rect x="143.3" y="421" class="st3" width="57.2" height="40.2"/>
<rect x="149.9" y="458.4" class="st2" width="43.8" height="11.5"/>
<rect x="143.2" y="421" class="st2" width="57.2" height="40.2"/>
<rect x="153.2" y="458.4" class="st3" width="43.8" height="11.5"/>
<path class="st2" d="M179.1,387.6c1,3.4,1.5,5.8,1.5,5.8l-6.8,3c0,0-1.5-0.7-3.6-2.1C172.7,391,175.8,388.4,179.1,387.6z"/>
<path class="st2" d="M194.5,401.4l-1.1,0.2c-22.9,3.5-7.6-8.9-7.6-8.9s1-1,2.4-2.5C192.5,393.6,194.3,397.5,194.5,401.4z"/>
<path class="st8" d="M157.3,423.3c0,0,12.8-46,30.9-31.8s-7.3,36-7.3,36L157.3,423.3z"/>
<circle class="st2" cx="163.7" cy="372.9" r="1.4"/>
<circle class="st2" cx="163.6" cy="379.6" r="1.4"/>
<circle class="st2" cx="205.4" cy="374.2" r="1.4"/>
<circle class="st2" cx="171.8" cy="408.6" r="1.4"/>
<circle class="st2" cx="202.4" cy="385.4" r="1.4"/>
<circle class="st2" cx="187.5" cy="400.2" r="1.4"/>
<circle class="st2" cx="168.7" cy="375.8" r="1.4"/>
<circle class="st2" cx="201.4" cy="378.5" r="1.4"/>
<circle class="st2" cx="196.5" cy="389.7" r="1.4"/>
<circle class="st2" cx="181.4" cy="407.6" r="1.4"/>
<circle class="st2" cx="178.3" cy="400.5" r="1.4"/>
<circle class="st2" cx="170.8" cy="384.5" r="1.4"/>
<rect x="153.2" y="458.4" class="st2" width="43.8" height="4.2"/>
<rect x="146.2" y="421" class="st3" width="57.2" height="40.2"/>
<circle class="st2" cx="183.3" cy="414" r="1.4"/>
<circle class="st2" cx="174.7" cy="415.8" r="1.4"/>
<path class="st8" d="M311.9,574.6c0,0,7.1,9.3-3.3,23.4s-19,26-15.6,34.8c0,0,15.7-26.2,28.5-26.5S326,590.4,311.9,574.6z"/>
<path class="st2" d="M311.9,574.6c0.6,0.9,1.1,1.9,1.5,2.9c12.5,14.7,19.1,28.4,7.1,28.7c-11.2,0.4-24.6,20.4-27.8,25.4
	c0.1,0.4,0.2,0.8,0.4,1.2c0,0,15.7-26.2,28.5-26.5S326,590.4,311.9,574.6z"/>
<path class="st12" d="M325.1,586.5c0,3.3-0.4,5.9-0.8,5.9s-0.8-2.7-0.8-5.9s0.5-1.7,0.9-1.7S325.1,583.2,325.1,586.5z"/>
<path class="st12" d="M329.7,590.5c-2.9,1.6-5.4,2.5-5.6,2.1s1.9-2,4.8-3.6s1.7-0.4,2,0S332.6,588.9,329.7,590.5z"/>
<path class="st8" d="M274.2,574.6c0,0-7.1,9.3,3.3,23.4s19,26,15.5,34.8c0,0-15.7-26.2-28.5-26.5S260.1,590.4,274.2,574.6z"/>
<path class="st2" d="M274.2,574.6c-0.6,0.9-1.1,1.9-1.5,2.9c-12.5,14.7-19.1,28.4-7.1,28.7c11.2,0.4,24.6,20.4,27.8,25.4
	c-0.1,0.4-0.2,0.8-0.4,1.2c0,0-15.7-26.2-28.5-26.5S260.1,590.4,274.2,574.6z"/>
<path class="st12" d="M260.9,586.5c0,3.3,0.4,5.9,0.8,5.9s0.8-2.7,0.8-5.9s-0.5-1.7-0.9-1.7S260.9,583.2,260.9,586.5z"/>
<path class="st12" d="M256.4,590.5c2.9,1.6,5.4,2.5,5.6,2.1s-1.9-2-4.8-3.6s-1.7-0.4-2,0S253.5,588.9,256.4,590.5z"/>
<ellipse class="st0" cx="293" cy="692.7" rx="74.6" ry="11.5"/>
<path class="st13" d="M331.4,620.2l-0.4,2.9l-0.5,4.1l-0.2,1.7l-0.5,4.1l-0.2,1.7l-0.5,4.1l-5.7,46.8c-0.5,4.2-7.3,7.4-15.6,7.4
	h-29.7c-8.2,0-15-3.2-15.6-7.4l-5.7-46.8l-0.5-4.1l-0.2-1.7l-0.5-4.1l-0.2-1.7l-0.5-4.1l-0.4-2.9c-0.3-2.4,3.4-4.4,8.1-4.4h60.7
	C328,615.9,331.7,617.9,331.4,620.2z"/>
<polygon class="st14" points="331.1,623.2 330.6,627.3 255.5,627.3 255,623.2 "/>
<polygon class="st14" points="330.4,629 329.9,633.1 256.2,633.1 255.7,629 "/>
<polygon class="st14" points="329.7,634.8 329.2,638.9 256.9,638.9 256.4,634.8 "/>
<path class="st7" d="M595.2,434.9l-6.2-2.3c0,0,5.5-7.8,3.1-17.2c0,0-2.6-11.5-1.4-16.1s4.5-21.6,4.5-21.6s0.5-18-9.3-26.2
	s-16.5-15-12.7-7c1.6,3.7,3.5,7.3,5.5,10.8c0,0-23.2,5.6-15,14.3s10.5,8.7,10.5,8.7s-2.8,21.5-3.2,25.5s-5,34.5-5,34.5
	s-0.2,14.5,2.2,16.8c1.1,5.6,6.3,9.5,12,9C582,463.8,603.2,440.4,595.2,434.9z"/>
</svg>
